<?xml version="1.0" encoding="UTF-8"?>
<svg version="1.1" xmlns="http://www.w3.org/2000/svg" width="1001" height="1000">
<path d="M0 0 C0.87947713 0.00234117 1.75895426 0.00468233 2.66508222 0.00709444 C3.59454199 0.005641 4.52400177 0.00418756 5.48162699 0.00269008 C8.6374093 -0.00099772 11.79314415 0.00252927 14.94892621 0.00595194 C17.21771703 0.00480122 19.48650766 0.00321403 21.7552979 0.0012247 C28.02197854 -0.00297534 34.28864408 -0.00087491 40.55532479 0.00221092 C46.60936587 0.00423122 52.66340369 0.00158158 58.71744412 -0.00093645 C71.87124869 -0.00621343 85.02504842 -0.00574134 98.17885345 -0.00285754 C109.68967494 -0.0003462 121.20049464 0.00031669 132.71131635 -0.00088018 C133.47359321 -0.00095657 134.23587008 -0.00103295 135.02124624 -0.00111165 C138.1152447 -0.00142297 141.20924317 -0.00174137 144.30324163 -0.00207142 C173.35259037 -0.00513335 202.401936 -0.00235231 231.45128426 0.00302548 C257.28399599 0.00777141 283.1167028 0.0073468 308.94941449 0.00256449 C337.94418722 -0.0027852 366.93895721 -0.00491624 395.93373036 -0.00182325 C399.0222307 -0.00150251 402.11073104 -0.00118967 405.19923139 -0.00088018 C406.34000965 -0.00076157 406.34000965 -0.00076157 407.50383393 -0.00064055 C419.01000721 0.00049896 430.51617851 -0.00083715 442.0223515 -0.00335974 C455.0997934 -0.00621243 468.17722967 -0.00551824 481.25467086 -0.00007899 C487.93413301 0.0026072 494.61358734 0.00356095 501.29305005 0.00027186 C507.39699784 -0.0026885 513.50092622 -0.00110268 519.60487223 0.00424941 C521.82355321 0.00537472 524.0422358 0.00477994 526.26091576 0.00237362 C529.25578965 -0.00062759 532.25059531 0.00241122 535.24546552 0.00709444 C536.12494265 0.00475328 537.00441978 0.00241211 537.91054773 0 C543.84112353 0.01878525 543.84112353 0.01878525 544.95527387 1.13293558 C545.08927919 3.9158834 545.1449214 6.66116245 545.14277387 9.44543558 C545.1434184 10.30814066 545.14406293 11.17084574 545.14472699 12.0596934 C545.04955025 24.44564882 543.96079423 36.79391714 542.95527387 49.13293558 C543.61527387 49.13293558 544.27527387 49.13293558 544.95527387 49.13293558 C544.9782398 104.32700363 544.99582244 159.52107118 545.0063392 214.71514307 C545.00758967 221.25406545 545.00888402 227.79298783 545.01020551 234.33191019 C545.01046782 235.63351073 545.01073013 236.93511127 545.01100039 238.27615424 C545.0153335 259.26008412 545.02320788 280.24401122 545.03242666 301.22793946 C545.04182915 322.8125138 545.04734334 344.39708669 545.04936236 365.98166299 C545.05072399 379.26492077 545.05499983 392.54817069 545.06319033 405.83142605 C545.06853946 414.98125644 545.07005994 424.13108286 545.06877524 433.2809147 C545.0681444 438.53371327 545.06900276 443.78649825 545.07447934 449.0392943 C545.10888293 483.78197306 544.80253896 518.55119436 543.08027387 553.25793558 C543.0182478 554.53601084 543.0182478 554.53601084 542.95496869 555.8399058 C540.26615982 610.17338167 540.26615982 610.17338167 528.67793012 624.73840433 C521.63235201 630.44196756 509.45168376 628.83811416 500.95527387 628.13293558 C483.62164849 624.61566288 470.01723547 606.23385382 460.72138715 592.2808848 C458.15402384 588.31425248 455.69002327 584.28740133 453.24384809 580.24524027 C451.95006705 578.12440028 450.63031046 576.0219458 449.30293012 573.92199808 C443.94134231 565.3868908 439.00659729 556.68832681 434.33027387 547.75793558 C433.80900922 546.76463236 433.28774457 545.77132914 432.75068402 544.74792582 C428.76765302 537.03571707 428.76765302 537.03571707 427.95527387 533.13293558 C423.73671074 535.49059984 420.10348913 538.37823172 416.39277387 541.44543558 C346.38059954 598.2537131 256.58492639 635.64398165 28.45527387 699.32043558 C27.23503522 699.56521647 26.01479657 699.80999735 24.757581 700.06219584 C-0.25692981 705.05375259 -0.25692981 705.05375259 -13.04472613 704.13293558 C-13.69153221 688.69942394 -11.92694237 673.9637716 -9.52543902 658.72644144 C-8.36551544 650.05558553 -7.89744049 641.48394265 -7.90885425 632.74023348 C-7.90631162 631.64221651 -7.903769 630.54419954 -7.90114933 629.41290933 C-7.89384633 625.74396335 -7.89355453 622.07505116 -7.89323688 618.40609843 C-7.88938487 615.74506922 -7.88513961 613.08404329 -7.88041139 610.42301577 C-7.87092349 604.64292553 -7.86506228 598.86284057 -7.8616035 593.0827437 C-7.85643724 584.48796456 -7.84557785 575.89319914 -7.83352406 567.29842723 C-7.81338528 552.8387852 -7.79767936 538.37914161 -7.78436542 523.91949183 C-7.76613214 504.18256437 -7.74142589 484.44564876 -7.71499151 464.70873077 C-7.70268399 455.51312262 -7.69069222 446.31751406 -7.67878222 437.12190539 C-7.6775897 436.20145502 -7.67639718 435.28100466 -7.67516852 434.33266186 C-7.64687096 412.4347088 -7.62166128 390.53675235 -7.59697223 368.63879496 C-7.59589103 367.68085362 -7.59480983 366.72291227 -7.59369587 365.7359424 C-7.57504971 349.21132586 -7.55661937 332.68670908 -7.5382154 316.16209227 C-7.52305181 302.54918318 -7.50782013 288.93627416 -7.49248004 275.32336527 C-7.49140057 274.36441717 -7.49032111 273.40546907 -7.48920893 272.41746194 C-7.46456169 250.5369841 -7.43902626 228.65650779 -7.41067004 206.77603441 C-7.40947979 205.85732891 -7.40828954 204.9386234 -7.40706322 203.99207834 C-7.39516283 194.82256062 -7.38310517 185.65304312 -7.37081301 176.48352592 C-7.34441054 156.76256052 -7.32076405 137.04159722 -7.30263962 117.32062236 C-7.28939553 102.95528175 -7.27276313 88.58994857 -7.25254452 74.22461604 C-7.24063903 65.67978474 -7.23158925 57.13496101 -7.22649855 48.59012288 C-7.22283749 42.8934855 -7.21561394 37.19686007 -7.20541423 31.50023065 C-7.19969786 28.24758283 -7.19616436 24.99495809 -7.19588536 21.74230461 C-7.1953507 18.25058677 -7.18879205 14.75893323 -7.18059802 11.26722628 C-7.18190654 10.2414035 -7.18321505 9.21558071 -7.18456322 8.15867239 C-7.18113873 7.23755632 -7.17771425 6.31644024 -7.17418599 5.36741155 C-7.1728838 4.16779073 -7.1728838 4.16779073 -7.17155531 2.94393515 C-6.87892325 -1.23457136 -3.39491597 0.01075348 0 0 Z " fill="#143158" transform="translate(235.04472613334656,147.86706441640854)"/>
<path d="M0 0 C17.16 0 34.32 0 52 0 C52 1.65 52 3.3 52 5 C62.56 5 73.12 5 84 5 C84 6.65 84 8.3 84 10 C94.89 10 105.78 10 117 10 C117 11.32 117 12.64 117 14 C127.89 14 138.78 14 150 14 C150 15.65 150 17.3 150 19 C151.65 19 153.3 19 155 19 C155 80.71 155 142.42 155 206 C133.22 206 111.44 206 89 206 C89 210.95 89 215.9 89 221 C90.65 221 92.3 221 94 221 C94 225.62 94 230.24 94 235 C95.65 235 97.3 235 99 235 C99 239.62 99 244.24 99 249 C100.32 249 101.64 249 103 249 C103 251.97 103 254.94 103 258 C101.68 258 100.36 258 99 258 C99 260.97 99 263.94 99 267 C97.35 267 95.7 267 94 267 C94 274.92 94 282.84 94 291 C91.03 291 88.06 291 85 291 C85 292.32 85 293.64 85 295 C80.38 295 75.76 295 71 295 C71 296.65 71 298.3 71 300 C58.46 300 45.92 300 33 300 C33 298.35 33 296.7 33 295 C31.68 295 30.36 295 29 295 C29 292.36 29 289.72 29 287 C31.97 287 34.94 287 38 287 C38 285.35 38 283.7 38 282 C40.97 282 43.94 282 47 282 C47 280.35 47 278.7 47 277 C51.95 277 56.9 277 62 277 C62 272.38 62 267.76 62 263 C60.35 263 58.7 263 57 263 C57 261.35 57 259.7 57 258 C55.35 258 53.7 258 52 258 C52 256.35 52 254.7 52 253 C50.68 253 49.36 253 48 253 C48 251.68 48 250.36 48 249 C46.35 249 44.7 249 43 249 C43 247.35 43 245.7 43 244 C41.35 244 39.7 244 38 244 C38 241.03 38 238.06 38 235 C36.35 234.67 34.7 234.34 33 234 C33 228.06 33 222.12 33 216 C31.68 216 30.36 216 29 216 C29 214.35 29 212.7 29 211 C27.35 211 25.7 211 24 211 C24 215.62 24 220.24 24 225 C22.35 225 20.7 225 19 225 C19 229.62 19 234.24 19 239 C17.35 239 15.7 239 14 239 C14 240.65 14 242.3 14 244 C12.68 244 11.36 244 10 244 C10 246.97 10 249.94 10 253 C8.35 253 6.7 253 5 253 C5 254.65 5 256.3 5 258 C3.35 258 1.7 258 0 258 C0 255.03 0 252.06 0 249 C-1.65 249 -3.3 249 -5 249 C-5 250.32 -5 251.64 -5 253 C-6.32 253 -7.64 253 -9 253 C-9 254.65 -9 256.3 -9 258 C-10.65 258 -12.3 258 -14 258 C-14 259.65 -14 261.3 -14 263 C-15.65 263 -17.3 263 -19 263 C-19 264.32 -19 265.64 -19 267 C-20.32 267 -21.64 267 -23 267 C-23 268.65 -23 270.3 -23 272 C-26.3 272 -29.6 272 -33 272 C-33 273.65 -33 275.3 -33 277 C-37.62 277 -42.24 277 -47 277 C-47 278.32 -47 279.64 -47 281 C-48.32 281.33 -49.64 281.66 -51 282 C-51.33 283.32 -51.66 284.64 -52 286 C-53.32 286 -54.64 286 -56 286 C-56 287.65 -56 289.3 -56 291 C-57.65 291 -59.3 291 -61 291 C-61 293.97 -61 296.94 -61 300 C-62.32 300 -63.64 300 -65 300 C-65 303.3 -65 306.6 -65 310 C-66.65 310 -68.3 310 -70 310 C-70 311.32 -70 312.64 -70 314 C-74.62 314 -79.24 314 -84 314 C-84 315.65 -84 317.3 -84 319 C-94.89 319 -105.78 319 -117 319 C-117 320.65 -117 322.3 -117 324 C-119.97 324 -122.94 324 -126 324 C-126 322.35 -126 320.7 -126 319 C-130.62 319 -135.24 319 -140 319 C-140 317.35 -140 315.7 -140 314 C-141.65 314 -143.3 314 -145 314 C-145 311.03 -145 308.06 -145 305 C-143.35 305 -141.7 305 -140 305 C-140 303.68 -140 302.36 -140 301 C-138.68 300.67 -137.36 300.34 -136 300 C-135.67 297.03 -135.34 294.06 -135 291 C-125.76 291 -116.52 291 -107 291 C-107 289.68 -107 288.36 -107 287 C-105.68 287 -104.36 287 -103 287 C-103 283.7 -103 280.4 -103 277 C-101.35 277 -99.7 277 -98 277 C-98 274.03 -98 271.06 -98 268 C-96.35 268 -94.7 268 -93 268 C-93 266.35 -93 264.7 -93 263 C-91.68 263 -90.36 263 -89 263 C-89 261.35 -89 259.7 -89 258 C-87.35 258 -85.7 258 -84 258 C-84 256.68 -84 255.36 -84 254 C-82.35 254 -80.7 254 -79 254 C-79 252.35 -79 250.7 -79 249 C-77.35 249 -75.7 249 -74 249 C-74 247.68 -74 246.36 -74 245 C-72.68 245 -71.36 245 -70 245 C-70 243.35 -70 241.7 -70 240 C-68.35 240 -66.7 240 -65 240 C-65 236.7 -65 233.4 -65 230 C-63.35 230 -61.7 230 -60 230 C-60 227.03 -60 224.06 -60 221 C-58.68 221 -57.36 221 -56 221 C-56 219.35 -56 217.7 -56 216 C-54.35 216 -52.7 216 -51 216 C-51 213.03 -51 210.06 -51 207 C-49.35 207 -47.7 207 -46 207 C-46 202.05 -46 197.1 -46 192 C-53.92 192 -61.84 192 -70 192 C-70 193.65 -70 195.3 -70 197 C-74.62 197 -79.24 197 -84 197 C-84 198.65 -84 200.3 -84 202 C-87.3 202 -90.6 202 -94 202 C-94 203.32 -94 204.64 -94 206 C-98.29 206.33 -102.58 206.66 -107 207 C-107.33 208.32 -107.66 209.64 -108 211 C-112.62 211 -117.24 211 -122 211 C-122 212.65 -122 214.3 -122 216 C-127.94 216 -133.88 216 -140 216 C-140 214.35 -140 212.7 -140 211 C-144.62 211 -149.24 211 -154 211 C-154 212.65 -154 214.3 -154 216 C-158.95 216 -163.9 216 -169 216 C-169 217.65 -169 219.3 -169 221 C-170.32 221 -171.64 221 -173 221 C-173 222.32 -173 223.64 -173 225 C-180.59 225 -188.18 225 -196 225 C-196 223.35 -196 221.7 -196 220 C-197.65 220 -199.3 220 -201 220 C-201 217.36 -201 214.72 -201 212 C-198.03 212 -195.06 212 -192 212 C-192 210.35 -192 208.7 -192 207 C-190.35 207 -188.7 207 -187 207 C-187 205.35 -187 203.7 -187 202 C-190.3 202 -193.6 202 -197 202 C-197 203.32 -197 204.64 -197 206 C-204.59 206 -212.18 206 -220 206 C-220 204.68 -220 203.36 -220 202 C-221.32 202 -222.64 202 -224 202 C-224 200.35 -224 198.7 -224 197 C-225.65 197 -227.3 197 -229 197 C-229 195.35 -229 193.7 -229 192 C-230.65 192 -232.3 192 -234 192 C-234 189.03 -234 186.06 -234 183 C-232.35 183 -230.7 183 -229 183 C-229 181.68 -229 180.36 -229 179 C-227.35 179 -225.7 179 -224 179 C-224 177.35 -224 175.7 -224 174 C-221.03 174 -218.06 174 -215 174 C-215 172.35 -215 170.7 -215 169 C-213.35 169 -211.7 169 -210 169 C-210 167.35 -210 165.7 -210 164 C-207.03 164 -204.06 164 -201 164 C-201 161.03 -201 158.06 -201 155 C-199.35 155 -197.7 155 -196 155 C-196 153.35 -196 151.7 -196 150 C-194.68 150 -193.36 150 -192 150 C-192 147.03 -192 144.06 -192 141 C-193.32 141 -194.64 141 -196 141 C-196 133.41 -196 125.82 -196 118 C-194.68 118 -193.36 118 -192 118 C-192 116.35 -192 114.7 -192 113 C-190.35 113 -188.7 113 -187 113 C-187 111.35 -187 109.7 -187 108 C-185.35 108 -183.7 108 -182 108 C-182 106.35 -182 104.7 -182 103 C-180.68 103 -179.36 103 -178 103 C-178 101.68 -178 100.36 -178 99 C-174.7 99 -171.4 99 -168 99 C-168 97.35 -168 95.7 -168 94 C-166.68 94 -165.36 94 -164 94 C-163.67 92.35 -163.34 90.7 -163 89 C-161.68 89 -160.36 89 -159 89 C-159 87.68 -159 86.36 -159 85 C-157.35 85 -155.7 85 -154 85 C-154 81.7 -154 78.4 -154 75 C-152.68 75 -151.36 75 -150 75 C-150 73.68 -150 72.36 -150 71 C-145.38 71 -140.76 71 -136 71 C-136 72.32 -136 73.64 -136 75 C-128.08 75 -120.16 75 -112 75 C-112 73.68 -112 72.36 -112 71 C-110.35 71 -108.7 71 -107 71 C-107 69.35 -107 67.7 -107 66 C-104.03 66 -101.06 66 -98 66 C-98 64.35 -98 62.7 -98 61 C-96.35 61 -94.7 61 -93 61 C-93 59.68 -93 58.36 -93 57 C-91.68 57 -90.36 57 -89 57 C-89 55.35 -89 53.7 -89 52 C-87.35 52 -85.7 52 -84 52 C-84 50.35 -84 48.7 -84 47 C-82.35 47 -80.7 47 -79 47 C-79 45.35 -79 43.7 -79 42 C-76.03 42 -73.06 42 -70 42 C-70 40.68 -70 39.36 -70 38 C-68.35 38 -66.7 38 -65 38 C-65 36.35 -65 34.7 -65 33 C-63.35 33 -61.7 33 -60 33 C-60 31.35 -60 29.7 -60 28 C-57.03 28 -54.06 28 -51 28 C-51 26.68 -51 25.36 -51 24 C-49.02 23.505 -49.02 23.505 -47 23 C-46.67 21.68 -46.34 20.36 -46 19 C-43.03 19 -40.06 19 -37 19 C-37 17.35 -37 15.7 -37 14 C-34.03 14 -31.06 14 -28 14 C-28 12.68 -28 11.36 -28 10 C-23.545 9.505 -23.545 9.505 -19 9 C-18.67 7.68 -18.34 6.36 -18 5 C-12.06 5 -6.12 5 0 5 C0 3.35 0 1.7 0 0 Z " fill="#FEFEFE" transform="translate(624,364)"/>
<path d="M0 0 C1.32 0 2.64 0 4 0 C4 2.64 4 5.28 4 8 C5.32 8 6.64 8 8 8 C8 12.29 8 16.58 8 21 C16.91 21 25.82 21 35 21 C35 22.32 35 23.64 35 25 C33.68 25 32.36 25 31 25 C31 26.32 31 27.64 31 29 C28.03 29 25.06 29 22 29 C22 30.32 22 31.64 22 33 C20.68 33 19.36 33 18 33 C18 36.96 18 40.92 18 45 C19.32 45 20.64 45 22 45 C22 49.29 22 53.58 22 58 C20.35 58 18.7 58 17 58 C17 56.68 17 55.36 17 54 C15.68 54 14.36 54 13 54 C13 52.68 13 51.36 13 50 C10.03 50 7.06 50 4 50 C4 48.68 4 47.36 4 46 C2.68 46 1.36 46 0 46 C0 47.32 0 48.64 0 50 C-2.97 50 -5.94 50 -9 50 C-9 51.32 -9 52.64 -9 54 C-10.32 54 -11.64 54 -13 54 C-13 55.32 -13 56.64 -13 58 C-14.65 58 -16.3 58 -18 58 C-18 53.71 -18 49.42 -18 45 C-16.68 45 -15.36 45 -14 45 C-14 41.04 -14 37.08 -14 33 C-15.32 33 -16.64 33 -18 33 C-18 31.68 -18 30.36 -18 29 C-20.97 29 -23.94 29 -27 29 C-27 27.68 -27 26.36 -27 25 C-28.32 25 -29.64 25 -31 25 C-31 23.68 -31 22.36 -31 21 C-22.09 21 -13.18 21 -4 21 C-4 17.04 -4 13.08 -4 9 C-2.68 9 -1.36 9 0 9 C0 6.03 0 3.06 0 0 Z " fill="#B40635" transform="translate(390,376)"/>
<path d="M0 0 C1.32 0 2.64 0 4 0 C4 2.64 4 5.28 4 8 C5.32 8 6.64 8 8 8 C8 12.29 8 16.58 8 21 C16.91 21 25.82 21 35 21 C35 22.32 35 23.64 35 25 C33.68 25 32.36 25 31 25 C31 26.32 31 27.64 31 29 C28.03 29 25.06 29 22 29 C22 30.32 22 31.64 22 33 C20.68 33 19.36 33 18 33 C18 36.96 18 40.92 18 45 C19.32 45 20.64 45 22 45 C22 49.29 22 53.58 22 58 C20.35 58 18.7 58 17 58 C17 56.68 17 55.36 17 54 C15.68 54 14.36 54 13 54 C13.33 52.68 13.66 51.36 14 50 C15.65 50.99 17.3 51.98 19 53 C19 52.01 19 51.02 19 50 C17.515 49.505 17.515 49.505 16 49 C15.72351286 46.5837428 15.47821663 44.17088623 15.25 41.75 C15.12818359 40.72712891 15.12818359 40.72712891 15.00390625 39.68359375 C14.828125 37.671875 14.828125 37.671875 15 34 C16.984375 31.703125 16.984375 31.703125 19 30 C19 29.01 19 28.02 19 27 C22.3 26.34 25.6 25.68 29 25 C29 24.34 29 23.68 29 23 C18.11 23.495 18.11 23.495 7 24 C6.67 20.37 6.34 16.74 6 13 C5.01 13 4.02 13 3 13 C2.67 10.36 2.34 7.72 2 5 C1.34 5.99 0.68 6.98 0 8 C0 5.36 0 2.72 0 0 Z " fill="#AC594F" transform="translate(390,376)"/>
<path d="M0 0 C1.32 0 2.64 0 4 0 C3.7834375 0.84498047 3.7834375 0.84498047 3.5625 1.70703125 C2.80034742 4.81386156 2.15587205 7.9434545 1.5 11.07421875 C1 13 1 13 0 14 C-1.63472882 14.08700342 -3.27314055 14.10701063 -4.91015625 14.09765625 C-5.89951172 14.09443359 -6.88886719 14.09121094 -7.90820312 14.08789062 C-8.94912109 14.07951172 -9.99003906 14.07113281 -11.0625 14.0625 C-12.10728516 14.05798828 -13.15207031 14.05347656 -14.22851562 14.04882812 C-16.8190666 14.03699913 -19.40950559 14.02051689 -22 14 C-22 14.66 -22 15.32 -22 16 C-18.7 16.66 -15.4 17.32 -12 18 C-12 19.32 -12 20.64 -12 22 C-10.88625 21.938125 -9.7725 21.87625 -8.625 21.8125 C-6.830625 21.9053125 -6.830625 21.9053125 -5 22 C-3 25 -3 25 -3 29 C-3.99 29 -4.98 29 -6 29 C-6.16435547 29.99580078 -6.16435547 29.99580078 -6.33203125 31.01171875 C-7.21136023 35.90879478 -7.99451714 39.90161428 -11 44 C-9.68 44 -8.36 44 -7 44 C-6.67 43.01 -6.34 42.02 -6 41 C-5.67 42.32 -5.34 43.64 -5 45 C-6.32 45 -7.64 45 -9 45 C-9 46.32 -9 47.64 -9 49 C-10.65 49 -12.3 49 -14 49 C-14 44.71 -14 40.42 -14 36 C-12.68 36 -11.36 36 -10 36 C-10 32.04 -10 28.08 -10 24 C-11.32 24 -12.64 24 -14 24 C-14 22.68 -14 21.36 -14 20 C-16.97 20 -19.94 20 -23 20 C-23 18.68 -23 17.36 -23 16 C-24.32 16 -25.64 16 -27 16 C-27 14.68 -27 13.36 -27 12 C-18.09 12 -9.18 12 0 12 C0 8.04 0 4.08 0 0 Z " fill="#BD4E45" transform="translate(386,385)"/>
<path d="M0 0 C0.66 0.33 1.32 0.66 2 1 C1.87431641 2.12148438 1.87431641 2.12148438 1.74609375 3.265625 C1.64425781 4.25046875 1.54242188 5.2353125 1.4375 6.25 C1.33308594 7.22453125 1.22867187 8.1990625 1.12109375 9.203125 C1.00889189 11.79462609 1.31511486 13.5371807 2 16 C7.51754805 16.07402793 13.03480856 16.12854366 18.55273438 16.16479492 C20.43071526 16.17990325 22.30866076 16.20039094 24.18652344 16.22631836 C26.88225019 16.26261246 29.57751146 16.27970545 32.2734375 16.29296875 C33.11619232 16.30845261 33.95894714 16.32393646 34.82723999 16.33988953 C37.43722275 16.37589136 37.43722275 16.37589136 41 16 C41.66 15.01 42.32 14.02 43 13 C46.0390625 12.70703125 46.0390625 12.70703125 49.625 12.8125 C50.81351563 12.83957031 52.00203125 12.86664062 53.2265625 12.89453125 C54.14179687 12.92933594 55.05703125 12.96414063 56 13 C56 14.65 56 16.3 56 18 C45.11 18 34.22 18 23 18 C23 19.65 23 21.3 23 23 C20.03 23 17.06 23 14 23 C14 21.35 14 19.7 14 18 C9.38 18 4.76 18 0 18 C0 16.35 0 14.7 0 13 C-1.65 13 -3.3 13 -5 13 C-5 10.03 -5 7.06 -5 4 C-3.35 4 -1.7 4 0 4 C0 2.68 0 1.36 0 0 Z " fill="#E9DFC7" transform="translate(484,665)"/>
<path d="M0 0 C1.65 0 3.3 0 5 0 C4.01 1.98 3.02 3.96 2 6 C0.68 6 -0.64 6 -2 6 C-2.66 7.65 -3.32 9.3 -4 11 C-4.99 11 -5.98 11 -7 11 C-7.0825 11.515625 -7.165 12.03125 -7.25 12.5625 C-8 15 -8 15 -10.03125 17.71875 C-13.40980395 23.53559996 -12.41664641 30.43593172 -12.25 36.9375 C-12.22990673 38.30270821 -12.21166094 39.66794493 -12.1953125 41.03320312 C-12.14834433 44.35620134 -12.08266726 47.67772992 -12 51 C-12.66 51 -13.32 51 -14 51 C-14 48.03 -14 45.06 -14 42 C-15.32 42 -16.64 42 -18 42 C-18 34.41 -18 26.82 -18 19 C-16.68 19 -15.36 19 -14 19 C-14 17.35 -14 15.7 -14 14 C-12.35 14 -10.7 14 -9 14 C-9 12.35 -9 10.7 -9 9 C-7.35 9 -5.7 9 -4 9 C-4 7.35 -4 5.7 -4 4 C-2.68 4 -1.36 4 0 4 C0 2.68 0 1.36 0 0 Z " fill="#E9E2CF" transform="translate(446,463)"/>
<path d="M0 0 C2.1875 0.3125 2.1875 0.3125 4 1 C3.67 2.32 3.34 3.64 3 5 C-1.62 5 -6.24 5 -11 5 C-11 6.65 -11 8.3 -11 10 C-16.94 10 -22.88 10 -29 10 C-29 8.35 -29 6.7 -29 5 C-33.62 5 -38.24 5 -43 5 C-43 6.65 -43 8.3 -43 10 C-47.29 10 -51.58 10 -56 10 C-56 9.67 -56 9.34 -56 9 C-53.69 9 -51.38 9 -49 9 C-48.34 7.35 -47.68 5.7 -47 4 C-45.68281982 3.98541748 -44.36563965 3.97083496 -43.00854492 3.95581055 C-38.12740762 3.89789287 -33.24673482 3.82065964 -28.3659668 3.73754883 C-26.25243664 3.70426872 -24.13881694 3.67624647 -22.02514648 3.65356445 C-18.98903194 3.62007528 -15.95374025 3.56776236 -12.91796875 3.51171875 C-11.97100632 3.50532883 -11.02404388 3.4989389 -10.04838562 3.49235535 C-9.16769913 3.47256119 -8.28701263 3.45276703 -7.37963867 3.43237305 C-6.21714851 3.41571846 -6.21714851 3.41571846 -5.03117371 3.39872742 C-2.50878936 2.90357341 -1.72262265 1.83694347 0 0 Z " fill="#F8F3E6" transform="translate(513,570)"/>
<path d="M0 0 C4.62 0 9.24 0 14 0 C14 1.32 14 2.64 14 4 C21.92 4 29.84 4 38 4 C38 4.33 38 4.66 38 5 C34.03069011 5.02465881 30.06140966 5.04284023 26.09204102 5.05493164 C24.74079614 5.05997057 23.38955674 5.06680177 22.03833008 5.07543945 C20.09979566 5.08752419 18.161222 5.09269828 16.22265625 5.09765625 C14.47094116 5.10551147 14.47094116 5.10551147 12.68383789 5.11352539 C10 5 10 5 9 4 C5.06620658 3.46357362 3.46329399 3.6705465 0.1875 6 C-2.34782169 8.88682257 -2.34782169 8.88682257 -2.125 12.75 C-2.30948252 16.08976974 -2.9863824 16.98565974 -5.35546875 19.48046875 C-13.61559325 26.34390113 -13.61559325 26.34390113 -18 27 C-18 25.68 -18 24.36 -18 23 C-16.68 23 -15.36 23 -14 23 C-13.67 21.35 -13.34 19.7 -13 18 C-11.68 18 -10.36 18 -9 18 C-9 16.68 -9 15.36 -9 14 C-7.35 14 -5.7 14 -4 14 C-4 10.7 -4 7.4 -4 4 C-2.68 4 -1.36 4 0 4 C0 2.68 0 1.36 0 0 Z " fill="#D8D2C0" transform="translate(474,435)"/>
<path d="M0 0 C10.89 0 21.78 0 33 0 C33 1.32 33 2.64 33 4 C43.89 4 54.78 4 66 4 C66 5.65 66 7.3 66 9 C67.65 9 69.3 9 71 9 C71 9.33 71 9.66 71 10 C69.22992286 10.08114106 67.45877902 10.13925505 65.6875 10.1875 C64.70136719 10.22230469 63.71523438 10.25710938 62.69921875 10.29296875 C60 10 60 10 58.69848633 8.51147461 C56.24556301 6.32863024 54.36851549 6.58440211 51.125 6.5234375 C49.97515625 6.4925 48.8253125 6.4615625 47.640625 6.4296875 C45.83851563 6.40261719 45.83851563 6.40261719 44 6.375 C41.62491726 6.32403256 39.24990733 6.26951145 36.875 6.2109375 C35.82054687 6.19337402 34.76609375 6.17581055 33.6796875 6.15771484 C31 6 31 6 28 5 C27.56196045 4.4949292 27.1239209 3.9898584 26.67260742 3.46948242 C24.26286729 1.35238626 22.40784564 1.56872705 19.23828125 1.48828125 C17.56088867 1.43510742 17.56088867 1.43510742 15.84960938 1.38085938 C14.68236328 1.35830078 13.51511719 1.33574219 12.3125 1.3125 C10.54422852 1.26125977 10.54422852 1.26125977 8.74023438 1.20898438 C5.82691775 1.12642075 2.91390534 1.05729678 0 1 C0 0.67 0 0.34 0 0 Z " fill="#FAF4E8" transform="translate(708,374)"/>
<path d="M0 0 C1.32 0 2.64 0 4 0 C4 2.64 4 5.28 4 8 C5.32 8 6.64 8 8 8 C8 12.29 8 16.58 8 21 C16.91 21 25.82 21 35 21 C35 21.99 35 22.98 35 24 C32.03 24.495 32.03 24.495 29 25 C29 24.34 29 23.68 29 23 C18.11 23.495 18.11 23.495 7 24 C6.67 20.37 6.34 16.74 6 13 C5.01 13 4.02 13 3 13 C2.67 10.36 2.34 7.72 2 5 C1.34 5.99 0.68 6.98 0 8 C0 5.36 0 2.72 0 0 Z " fill="#BC4D47" transform="translate(390,376)"/>
<path d="M0 0 C4.62 0 9.24 0 14 0 C12.15333916 1.23110723 10.28212332 2.42730755 8.375 3.5625 C6.12552959 4.79487437 6.12552959 4.79487437 5 6 C2.98405418 6.23427778 0.961526 6.41336124 -1.0625 6.5625 C-2.16722656 6.64628906 -3.27195312 6.73007812 -4.41015625 6.81640625 C-5.69212891 6.90728516 -5.69212891 6.90728516 -7 7 C-7.33 8.32 -7.66 9.64 -8 11 C-10.97 11 -13.94 11 -17 11 C-17 11.99 -17 12.98 -17 14 C-15.35 14.33 -13.7 14.66 -12 15 C-11.67 17.64 -11.34 20.28 -11 23 C-11.99 23 -12.98 23 -14 23 C-14 21.35 -14 19.7 -14 18 C-15.32 18 -16.64 18 -18 18 C-18 15.36 -18 12.72 -18 10 C-15.03 10 -12.06 10 -9 10 C-9 8.35 -9 6.7 -9 5 C-6.03 5 -3.06 5 0 5 C0 3.35 0 1.7 0 0 Z " fill="#F7F2E5" transform="translate(671,641)"/>
<path d="M0 0 C1.65 0 3.3 0 5 0 C4.01 1.98 3.02 3.96 2 6 C0.68 6 -0.64 6 -2 6 C-2.66 7.65 -3.32 9.3 -4 11 C-4.99 11 -5.98 11 -7 11 C-7.0825 11.515625 -7.165 12.03125 -7.25 12.5625 C-8 15 -8 15 -10.03125 17.71875 C-13.40980395 23.53559996 -12.41664641 30.43593172 -12.25 36.9375 C-12.22990673 38.30270821 -12.21166094 39.66794493 -12.1953125 41.03320312 C-12.14834433 44.35620134 -12.08266726 47.67772992 -12 51 C-12.33 51 -12.66 51 -13 51 C-14.84597109 23.77192635 -14.84597109 23.77192635 -13 14 C-11.68 14 -10.36 14 -9 14 C-9 12.35 -9 10.7 -9 9 C-7.35 9 -5.7 9 -4 9 C-4 7.35 -4 5.7 -4 4 C-2.68 4 -1.36 4 0 4 C0 2.68 0 1.36 0 0 Z " fill="#F9F5EB" transform="translate(446,463)"/>
<path d="M0 0 C0.99 0.33 1.98 0.66 3 1 C2.91249445 3.22988284 2.80430939 5.45896005 2.6875 7.6875 C2.62949219 8.92886719 2.57148438 10.17023438 2.51171875 11.44921875 C1.99089024 15.06321199 1.09845383 17.05766393 -1 20 C0.32 20 1.64 20 3 20 C3.33 19.01 3.66 18.02 4 17 C4.33 18.32 4.66 19.64 5 21 C3.68 21 2.36 21 1 21 C1 22.32 1 23.64 1 25 C-0.65 25 -2.3 25 -4 25 C-4 20.71 -4 16.42 -4 12 C-2.68 12 -1.36 12 0 12 C0 8.04 0 4.08 0 0 Z " fill="#A7584D" transform="translate(376,409)"/>
<path d="M0 0 C1.65 0 3.3 0 5 0 C5 4.62 5 9.24 5 14 C6.32 14 7.64 14 9 14 C9 16.97 9 19.94 9 23 C7.68 23 6.36 23 5 23 C5 25.97 5 28.94 5 32 C4.67 32 4.34 32 4 32 C3.9498877 31.20827393 3.89977539 30.41654785 3.84814453 29.60083008 C3.61565576 26.00410747 3.37046366 22.40835944 3.125 18.8125 C3.04636719 17.56662109 2.96773437 16.32074219 2.88671875 15.03710938 C2.80292969 13.83505859 2.71914063 12.63300781 2.6328125 11.39453125 C2.55949707 10.28956299 2.48618164 9.18459473 2.41064453 8.04614258 C2.00800562 5.05938532 1.24832715 2.72988267 0 0 Z " fill="#D7D3C6" transform="translate(718,599)"/>
<path d="M0 0 C1.32 0 2.64 0 4 0 C5.1577506 3.47325181 5.06866652 6.36067448 5 10 C4.67 10 4.34 10 4 10 C4 8.35 4 6.7 4 5 C0.7 5 -2.6 5 -6 5 C-6 6.32 -6 7.64 -6 9 C-13.59 9 -21.18 9 -29 9 C-28.67 7.68 -28.34 6.36 -28 5 C-28 5.99 -28 6.98 -28 8 C-25.89551062 7.85890014 -23.7914123 7.71195825 -21.6875 7.5625 C-19.92986328 7.44068359 -19.92986328 7.44068359 -18.13671875 7.31640625 C-14.97409042 7.1132629 -14.97409042 7.1132629 -12 6 C-11.608125 5.484375 -11.21625 4.96875 -10.8125 4.4375 C-7.81860452 2.06303117 -4.72806308 2.81665264 -1 3 C-0.67 2.01 -0.34 1.02 0 0 Z " fill="#F2EAD7" transform="translate(433,561)"/>
<path d="M0 0 C2.97 0 5.94 0 9 0 C8.319375 0.495 7.63875 0.99 6.9375 1.5 C3.81280589 4.15931413 1.33505774 7.02637274 -1.25390625 10.1953125 C-3.06656336 12.06879703 -4.6732005 12.88825225 -7 14 C-7.33 14.66 -7.66 15.32 -8 16 C-9.97522846 17.04808041 -11.97481509 18.0520411 -14 19 C-14 17.68 -14 16.36 -14 15 C-12.68 15 -11.36 15 -10 15 C-10 13.35 -10 11.7 -10 10 C-8.35 10 -6.7 10 -5 10 C-5 8.35 -5 6.7 -5 5 C-3.35 5 -1.7 5 0 5 C0 3.35 0 1.7 0 0 Z " fill="#F5EDDB" transform="translate(545,406)"/>
<path d="M0 0 C0.33 0 0.66 0 1 0 C1 4.62 1 9.24 1 14 C-0.65 14 -2.3 14 -4 14 C-4 18.62 -4 23.24 -4 28 C-5.65 28 -7.3 28 -9 28 C-9 29.65 -9 31.3 -9 33 C-10.32 32.67 -11.64 32.34 -13 32 C-12.01 32 -11.02 32 -10 32 C-10.0825 31.2575 -10.165 30.515 -10.25 29.75 C-10 27 -10 27 -8.02734375 25.26953125 C-5.2657656 22.17805359 -5.43722997 20.02778267 -5.3125 15.9375 C-5.06485849 9.19457547 -5.06485849 9.19457547 -4 6 C-3.34 6 -2.68 6 -2 6 C-1.34 4.02 -0.68 2.04 0 0 Z " fill="#F6EFDC" transform="translate(647,575)"/>
<path d="M0 0 C1.32 0.33 2.64 0.66 4 1 C3.34 1.66 2.68 2.32 2 3 C1.97987543 4.52084288 2.00778981 6.04250827 2.0625 7.5625 C1.78569778 11.37129851 1.23094507 12.7439025 -1.3671875 15.625 C-9.42516577 22.29367168 -9.42516577 22.29367168 -14 23 C-14 21.68 -14 20.36 -14 19 C-12.68 19 -11.36 19 -10 19 C-9.67 17.35 -9.34 15.7 -9 14 C-7.68 14 -6.36 14 -5 14 C-5 12.68 -5 11.36 -5 10 C-3.35 10 -1.7 10 0 10 C0 6.7 0 3.4 0 0 Z " fill="#E1D4B4" transform="translate(470,439)"/>
<path d="M0 0 C0 0.99 0 1.98 0 3 C-1.32 3 -2.64 3 -4 3 C-4 4.65 -4 6.3 -4 8 C-7.3 8 -10.6 8 -14 8 C-14 9.65 -14 11.3 -14 13 C-18.29 13 -22.58 13 -27 13 C-24.07735566 11.53867783 -22.07536854 10.65900754 -19 10 C-19 9.01 -19 8.02 -19 7 C-18.09507812 6.96132813 -18.09507812 6.96132813 -17.171875 6.921875 C-12.00995754 6.64130372 -12.00995754 6.64130372 -7.6875 4.0625 C-7.130625 3.381875 -6.57375 2.70125 -6 2 C-3.7859478 0.69761635 -2.56707742 0 0 0 Z " fill="#EBE3CE" transform="translate(605,628)"/>
<path d="M0 0 C2.97 0 5.94 0 9 0 C8.29875 0.556875 7.5975 1.11375 6.875 1.6875 C5.3687192 2.89907369 3.86574426 4.11587354 2.40234375 5.37890625 C-1.79647436 9 -1.79647436 9 -4 9 C-4 9.66 -4 10.32 -4 11 C-7.2491277 13.3208055 -10.05879291 14.43697042 -14 15 C-14 13.35 -14 11.7 -14 10 C-11.03 10 -8.06 10 -5 10 C-5 8.35 -5 6.7 -5 5 C-3.35 5 -1.7 5 0 5 C0 3.35 0 1.7 0 0 Z " fill="#E6D9BB" transform="translate(414,528)"/>
<path d="M0 0 C0.66 0.33 1.32 0.66 2 1 C1.87431641 2.12148438 1.87431641 2.12148438 1.74609375 3.265625 C1.64425781 4.25046875 1.54242188 5.2353125 1.4375 6.25 C1.33308594 7.22453125 1.22867187 8.1990625 1.12109375 9.203125 C0.85711257 12.23388955 0.85711257 12.23388955 2 16 C5.96 16.33 9.92 16.66 14 17 C14 17.33 14 17.66 14 18 C9.38 18 4.76 18 0 18 C0 16.35 0 14.7 0 13 C-1.65 13 -3.3 13 -5 13 C-5 10.03 -5 7.06 -5 4 C-3.35 4 -1.7 4 0 4 C0 2.68 0 1.36 0 0 Z " fill="#F4ECD9" transform="translate(484,665)"/>
<path d="M0 0 C9.9730073 -0.62877104 9.9730073 -0.62877104 14.0625 1.875 C14.701875 2.57625 15.34125 3.2775 16 4 C16.66 4.66 17.32 5.32 18 6 C15.03 6 12.06 6 9 6 C9 4.68 9 3.36 9 2 C7.68 2 6.36 2 5 2 C5 3.32 5 4.64 5 6 C2.03 6 -0.94 6 -4 6 C-3.01 5.01 -2.02 4.02 -1 3 C-0.67 2.01 -0.34 1.02 0 0 Z " fill="#AC6352" transform="translate(385,420)"/>
<path d="M0 0 C1.98 0 3.96 0 6 0 C5.125 4.875 5.125 4.875 4 6 C0.81880568 6.20281522 -2.35469227 6.34684901 -5.54101562 6.4296875 C-7.80356683 6.50413959 -7.80356683 6.50413959 -11 7 C-11.99 8.485 -11.99 8.485 -13 10 C-16.125 10.1875 -16.125 10.1875 -19 10 C-18.67 8.35 -18.34 6.7 -18 5 C-12.06 5 -6.12 5 0 5 C0 3.35 0 1.7 0 0 Z " fill="#EBE3D0" transform="translate(624,364)"/>
<path d="M0 0 C0.33 1.32 0.66 2.64 1 4 C-3.62 4 -8.24 4 -13 4 C-13 5.65 -13 7.3 -13 9 C-16.3 9 -19.6 9 -23 9 C-23 10.32 -23 11.64 -23 13 C-23.99 13 -24.98 13 -26 13 C-25.125 9.125 -25.125 9.125 -24 8 C-22.33382885 7.95936168 -20.66611905 7.957279 -19 8 C-18.67 6.35 -18.34 4.7 -18 3 C-16.67935547 2.92652344 -16.67935547 2.92652344 -15.33203125 2.8515625 C-14.17058594 2.77679687 -13.00914062 2.70203125 -11.8125 2.625 C-10.08966797 2.52058594 -10.08966797 2.52058594 -8.33203125 2.4140625 C-5.20040883 2.02490426 -2.84714191 1.3190149 0 0 Z " fill="#E6D5A8" transform="translate(553,557)"/>
<path d="M0 0 C10.89 0 21.78 0 33 0 C33 1.65 33 3.3 33 5 C34.65 5 36.3 5 38 5 C38 5.33 38 5.66 38 6 C34.37 6 30.74 6 27 6 C26.34 4.68 25.68 3.36 25 2 C16.75 1.67 8.5 1.34 0 1 C0 0.67 0 0.34 0 0 Z " fill="#DBD6C9" transform="translate(741,378)"/>
<path d="M0 0 C5.94 0 11.88 0 18 0 C18 1.32 18 2.64 18 4 C12.06 4 6.12 4 0 4 C0 2.68 0 1.36 0 0 Z " fill="#E7D6AB" transform="translate(484,576)"/>
<path d="M0 0 C1.65 0 3.3 0 5 0 C3.34631562 3.58298283 1.23303797 6.75194477 -1 10 C-1.7425 11.175625 -1.7425 11.175625 -2.5 12.375 C-2.995 12.91125 -3.49 13.4475 -4 14 C-5.32 14 -6.64 14 -8 14 C-8 15.65 -8 17.3 -8 19 C-8.33 19 -8.66 19 -9 19 C-9 16.03 -9 13.06 -9 10 C-7.35 10 -5.7 10 -4 10 C-4 8.35 -4 6.7 -4 5 C-2.68 5 -1.36 5 0 5 C0 3.35 0 1.7 0 0 Z " fill="#E4D8BA" transform="translate(535,622)"/>
<path d="M0 0 C5.94 0 11.88 0 18 0 C13 5 13 5 10.9375 5.59375 C6.55982558 5.38192704 3.53297287 4.87054046 0 2 C0 1.34 0 0.68 0 0 Z " fill="#F6EFDC" transform="translate(492,440)"/>
<path d="M0 0 C1.0625 1.8125 1.0625 1.8125 2 4 C1.67 4.99 1.34 5.98 1 7 C0.88427033 8.76340143 0.82350925 10.53064769 0.79467773 12.29760742 C0.77473251 13.37850143 0.75478729 14.45939545 0.73423767 15.57304382 C0.71752518 16.73874405 0.70081268 17.90444427 0.68359375 19.10546875 C0.66281265 20.29981033 0.64203156 21.49415192 0.62062073 22.72468567 C0.55515724 26.54556443 0.4962549 30.36651276 0.4375 34.1875 C0.39431176 36.77539786 0.35069737 39.36328865 0.30664062 41.95117188 C0.19947908 48.30070739 0.0977066 54.65031234 0 61 C-0.33 61 -0.66 61 -1 61 C-1.02314591 53.34190448 -1.0409266 45.68381258 -1.05181217 38.02569008 C-1.05703606 34.46991365 -1.06412478 30.91416111 -1.07543945 27.35839844 C-1.08835914 23.27278409 -1.09323229 19.18719494 -1.09765625 15.1015625 C-1.10539818 13.18121689 -1.10539818 13.18121689 -1.11329651 11.22207642 C-1.11337204 10.04100311 -1.11344757 8.85992981 -1.11352539 7.64306641 C-1.115746 6.59937897 -1.11796661 5.55569153 -1.12025452 4.4803772 C-1 2 -1 2 0 0 Z " fill="#F4F4F4" transform="translate(774,419)"/>
<path d="M0 0 C1.65 0 3.3 0 5 0 C4.67 0.66 4.34 1.32 4 2 C3.34 2 2.68 2 2 2 C1.8453125 3.1446875 1.8453125 3.1446875 1.6875 4.3125 C1 7 1 7 -0.5 8.375 C-2.80767921 10.87498581 -2.58062077 13.70487746 -3 17 C-3.66 17.66 -4.32 18.32 -5 19 C-6.32 19 -7.64 19 -9 19 C-9 17.35 -9 15.7 -9 14 C-7.35 14 -5.7 14 -4 14 C-4 11.03 -4 8.06 -4 5 C-2.68 5 -1.36 5 0 5 C0 3.35 0 1.7 0 0 Z " fill="#E6D3A5" transform="translate(568,580)"/>
<path d="M0 0 C3.76607955 1.25535985 4.26441793 2.52883585 6 6 C6 6.99 6 7.98 6 9 C6.804375 9.2475 7.60875 9.495 8.4375 9.75 C11 11 11 11 11.8125 13.125 C11.874375 13.74375 11.93625 14.3625 12 15 C13.32 15.33 14.64 15.66 16 16 C16.33 17.65 16.66 19.3 17 21 C16.01 21 15.02 21 14 21 C14 19.35 14 17.7 14 16 C12.68 16 11.36 16 10 16 C10 14.68 10 13.36 10 12 C8.35 12 6.7 12 5 12 C5 10.35 5 8.7 5 7 C3.35 7 1.7 7 0 7 C0 4.69 0 2.38 0 0 Z " fill="#E2D5B4" transform="translate(662,601)"/>
<path d="M0 0 C0.33 0 0.66 0 1 0 C1 3.3 1 6.6 1 10 C-0.65 10 -2.3 10 -4 10 C-4 11.32 -4 12.64 -4 14 C-8.62 14 -13.24 14 -18 14 C-18 13.67 -18 13.34 -18 13 C-17.31292969 12.99742187 -16.62585938 12.99484375 -15.91796875 12.9921875 C-13.16335038 12.87396354 -10.67446737 12.68164185 -8 12 C-6.10801201 9.13297256 -6.10801201 9.13297256 -5 6 C-2.3125 4.625 -2.3125 4.625 0 4 C0 2.68 0 1.36 0 0 Z " fill="#EFE9D8" transform="translate(558,664)"/>
<path d="M0 0 C10.56 0 21.12 0 32 0 C32 1.65 32 3.3 32 5 C27.46784646 5.37767946 27.46784646 5.37767946 25.16699219 3.52026367 C22.47832372 1.63401552 20.83802998 1.57883417 17.578125 1.48828125 C16.55332031 1.45283203 15.52851562 1.41738281 14.47265625 1.38085938 C13.40917969 1.35830078 12.34570312 1.33574219 11.25 1.3125 C9.63158203 1.26125977 9.63158203 1.26125977 7.98046875 1.20898438 C5.32041623 1.12659337 2.66068965 1.05741355 0 1 C0 0.67 0 0.34 0 0 Z " fill="#ECE6DC" transform="translate(676,369)"/>
<path d="M0 0 C2.31 0.33 4.62 0.66 7 1 C7 2.32 7 3.64 7 5 C8.11375 4.938125 9.2275 4.87625 10.375 4.8125 C12.169375 4.9053125 12.169375 4.9053125 14 5 C16 8 16 8 16 12 C15.01 12 14.02 12 13 12 C12.34 13.32 11.68 14.64 11 16 C11 13.36 11 10.72 11 8 C8.03 7.505 8.03 7.505 5 7 C5 5.35 5 3.7 5 2 C3.35 1.67 1.7 1.34 0 1 C0 0.67 0 0.34 0 0 Z " fill="#B6313F" transform="translate(367,402)"/>
<path d="M0 0 C0.33 0 0.66 0 1 0 C1.37734166 5.53434434 1.37734166 5.53434434 -0.46875 7.8125 C-2.46831977 10.66902825 -2.49973592 12.79514091 -2.6875 16.25 C-2.75324219 17.32765625 -2.81898438 18.4053125 -2.88671875 19.515625 C-2.92410156 20.33546875 -2.96148437 21.1553125 -3 22 C-2.01 22.33 -1.02 22.66 0 23 C0 24.65 0 26.3 0 28 C-1.32 28 -2.64 28 -4 28 C-4 20.41 -4 12.82 -4 5 C-2.68 5 -1.36 5 0 5 C0 3.35 0 1.7 0 0 Z " fill="#E2D1A7" transform="translate(432,477)"/>
<path d="M0 0 C3.96 0 7.92 0 12 0 C12 1.65 12 3.3 12 5 C3.42857143 5.28571429 3.42857143 5.28571429 0 3 C0 2.01 0 1.02 0 0 Z " fill="#F0E6CC" transform="translate(664,364)"/>
<path d="M0 0 C2.31 0 4.62 0 7 0 C3.12265637 4.48317857 -0.38216725 6.26058735 -6 8 C-6.99 8.33 -7.98 8.66 -9 9 C-9 7.35 -9 5.7 -9 4 C-6.03 4 -3.06 4 0 4 C0 2.68 0 1.36 0 0 Z " fill="#E5D8B9" transform="translate(596,374)"/>
<path d="M0 0 C1.65 0 3.3 0 5 0 C4.01 1.98 3.02 3.96 2 6 C0.68 6 -0.64 6 -2 6 C-2.226875 6.78375 -2.45375 7.5675 -2.6875 8.375 C-4 11 -4 11 -6.625 12.3125 C-7.40875 12.539375 -8.1925 12.76625 -9 13 C-9 11.68 -9 10.36 -9 9 C-7.35 9 -5.7 9 -4 9 C-4 7.35 -4 5.7 -4 4 C-2.68 4 -1.36 4 0 4 C0 2.68 0 1.36 0 0 Z " fill="#F5EEDF" transform="translate(446,463)"/>
<path d="M0 0 C0.99 0 1.98 0 3 0 C3.2475 0.886875 3.495 1.77375 3.75 2.6875 C5.04147017 6.10989594 6.67895325 8.2147439 9 11 C9 11.66 9 12.32 9 13 C7.68 13 6.36 13 5 13 C5 11.35 5 9.7 5 8 C3.35 8 1.7 8 0 8 C0 5.36 0 2.72 0 0 Z " fill="#E5D5AC" transform="translate(423,576)"/>
<path d="M0 0 C0 0.66 0 1.32 0 2 C-1.32 2 -2.64 2 -4 2 C-4 3.32 -4 4.64 -4 6 C-7.63 6 -11.26 6 -15 6 C-15 5.67 -15 5.34 -15 5 C-13.35 4.67 -11.7 4.34 -10 4 C-9.67 3.01 -9.34 2.02 -9 1 C-5.8035914 -0.06546953 -3.34252724 -0.07427838 0 0 Z " fill="#E4D8BE" transform="translate(455,583)"/>
<path d="M0 0 C0.33 0 0.66 0 1 0 C1 4.95 1 9.9 1 15 C2.65 15 4.3 15 6 15 C6 19.62 6 24.24 6 29 C5.67 29 5.34 29 5 29 C4.97421875 28.31292969 4.9484375 27.62585938 4.921875 26.91796875 C4.86515625 26.01691406 4.8084375 25.11585938 4.75 24.1875 C4.70359375 23.29417969 4.6571875 22.40085937 4.609375 21.48046875 C4.26139441 18.83960931 4.26139441 18.83960931 1.96875 17.6875 C0 16 0 16 -0.390625 12.20703125 C-0.36410276 10.74167769 -0.31649117 9.27658449 -0.25 7.8125 C-0.23195313 7.06291016 -0.21390625 6.31332031 -0.1953125 5.54101562 C-0.14824109 3.6934629 -0.07649766 1.84656841 0 0 Z " fill="#E5E0D2" transform="translate(712,570)"/>
<path d="M0 0 C4.62 0 9.24 0 14 0 C11.56585763 1.62276158 9.68680554 2.61744792 7 3.625 C5.9790625 4.01558594 5.9790625 4.01558594 4.9375 4.4140625 C3 5 3 5 0 5 C0 3.35 0 1.7 0 0 Z " fill="#D6CDB5" transform="translate(671,641)"/>
<path d="M0 0 C2.97 0 5.94 0 9 0 C5.51984665 2.96836609 2.07655894 4.96172053 -2 7 C-2.33 7.66 -2.66 8.32 -3 9 C-3.66 9 -4.32 9 -5 9 C-5 7.68 -5 6.36 -5 5 C-3.35 5 -1.7 5 0 5 C0 3.35 0 1.7 0 0 Z " fill="#F4EDDC" transform="translate(564,392)"/>
<path d="M0 0 C1.32 0 2.64 0 4 0 C4 1.98 4 3.96 4 6 C-0.29 6 -4.58 6 -9 6 C-9 5.67 -9 5.34 -9 5 C-6.69 5 -4.38 5 -2 5 C-1.34 3.35 -0.68 1.7 0 0 Z " fill="#E4DBC5" transform="translate(466,574)"/>
<path d="M0 0 C10.89 0 21.78 0 33 0 C33 0.99 33 1.98 33 3 C32.47889648 2.84152588 31.95779297 2.68305176 31.42089844 2.51977539 C28.34892068 1.86021098 25.40660253 1.78002727 22.265625 1.68359375 C20.97011719 1.64169922 19.67460938 1.59980469 18.33984375 1.55664062 C16.97656524 1.51683329 15.61328394 1.47712094 14.25 1.4375 C12.87108125 1.39427726 11.49217474 1.35066179 10.11328125 1.30664062 C6.7422881 1.20056042 3.37122174 1.0985015 0 1 C0 0.67 0 0.34 0 0 Z " fill="#EAE3D1" transform="translate(708,374)"/>
<path d="M0 0 C2.97 0.33 5.94 0.66 9 1 C9 2.32 9 3.64 9 5 C6.03 5 3.06 5 0 5 C0 3.35 0 1.7 0 0 Z " fill="#E9D9B2" transform="translate(498,683)"/>
<path d="M0 0 C9.24 0 18.48 0 28 0 C28 0.33 28 0.66 28 1 C26.94087402 1.02187378 26.94087402 1.02187378 25.86035156 1.04418945 C22.65635326 1.11873167 19.45338984 1.21537205 16.25 1.3125 C14.58324219 1.34633789 14.58324219 1.34633789 12.8828125 1.38085938 C11.81289063 1.41630859 10.74296875 1.45175781 9.640625 1.48828125 C8.16384277 1.52755737 8.16384277 1.52755737 6.65722656 1.56762695 C3.65831447 2.05559767 2.24392093 3.00048955 0 5 C0 3.35 0 1.7 0 0 Z " fill="#BEB7A6" transform="translate(489,655)"/>
<path d="M0 0 C0.66 0.33 1.32 0.66 2 1 C1.01 1.33 0.02 1.66 -1 2 C-1 2.66 -1 3.32 -1 4 C-4.2491277 6.3208055 -7.05879291 7.43697042 -11 8 C-11 6.35 -11 4.7 -11 3 C-8.03 3 -5.06 3 -2 3 C-2 2.34 -2 1.68 -2 1 C-1.34 0.67 -0.68 0.34 0 0 Z " fill="#F3EBD9" transform="translate(411,535)"/>
<path d="M0 0 C-0.66 0.66 -1.32 1.32 -2 2 C-2.40047444 4.32275177 -2.7397104 6.65739357 -3 9 C-4.32 8.67 -5.64 8.34 -7 8 C-7 5.69 -7 3.38 -7 1 C-3.375 -1.125 -3.375 -1.125 0 0 Z " fill="#B8263C" transform="translate(408,408)"/>
<path d="M0 0 C0.33 1.32 0.66 2.64 1 4 C2.65 4.33 4.3 4.66 6 5 C6.33 7.64 6.66 10.28 7 13 C6.01 13 5.02 13 4 13 C4 11.35 4 9.7 4 8 C2.68 8 1.36 8 0 8 C0 5.36 0 2.72 0 0 Z " fill="#F4EEE2" transform="translate(653,651)"/>
<path d="M0 0 C0.33 0 0.66 0 1 0 C1 7.59 1 15.18 1 23 C-0.98 23 -2.96 23 -5 23 C-3.625 21 -3.625 21 -2 19 C-1.34 19 -0.68 19 0 19 C0 12.73 0 6.46 0 0 Z " fill="#D4C9AD" transform="translate(717,632)"/>
<path d="M0 0 C0.33 0 0.66 0 1 0 C1 4.62 1 9.24 1 14 C-0.65 14 -2.3 14 -4 14 C-4 15.65 -4 17.3 -4 19 C-5.32 18.67 -6.64 18.34 -8 18 C-7.01 18 -6.02 18 -5 18 C-5.0825 17.2575 -5.165 16.515 -5.25 15.75 C-5 13 -5 13 -3.0625 11.25 C-0.00054564 7.90968616 -0.1878293 4.39520551 0 0 Z " fill="#E2DBCA" transform="translate(642,589)"/>
<path d="M0 0 C0.33 0 0.66 0 1 0 C1.0809723 2.43816585 1.14046972 4.87364384 1.1875 7.3125 C1.22520508 8.34793945 1.22520508 8.34793945 1.26367188 9.40429688 C1.33777767 14.5175964 1.33777767 14.5175964 -0.38671875 16.98046875 C-2 18 -2 18 -4 18 C-4 19.65 -4 21.3 -4 23 C-4.33 23 -4.66 23 -5 23 C-5 20.03 -5 17.06 -5 14 C-3.35 14 -1.7 14 0 14 C0 9.38 0 4.76 0 0 Z " fill="#F5EDDD" transform="translate(578,557)"/>
<path d="M0 0 C8.58 0 17.16 0 26 0 C26 0.33 26 0.66 26 1 C25.03960815 1.029729 25.03960815 1.029729 24.05981445 1.06005859 C21.1436472 1.15563601 18.22816428 1.26518214 15.3125 1.375 C14.30509766 1.4059375 13.29769531 1.436875 12.25976562 1.46875 C10.79506836 1.52675781 10.79506836 1.52675781 9.30078125 1.5859375 C8.40528564 1.6173584 7.50979004 1.6487793 6.5871582 1.68115234 C3.78407493 2.02661113 1.56735469 2.84681468 -1 4 C-0.67 2.68 -0.34 1.36 0 0 Z " fill="#F6EEE0" transform="translate(550,555)"/>
<path d="M0 0 C1.98 0.99 3.96 1.98 6 3 C6 2.01 6 1.02 6 0 C6.66 0 7.32 0 8 0 C8 2.64 8 5.28 8 8 C6.68 8 5.36 8 4 8 C4 6.68 4 5.36 4 4 C2.68 4 1.36 4 0 4 C0 2.68 0 1.36 0 0 Z " fill="#AF4A47" transform="translate(403,426)"/>
<path d="M0 0 C1.32 0.33 2.64 0.66 4 1 C0.25 6.75 0.25 6.75 -2 9 C-2.99 9 -3.98 9 -5 9 C-5 7.68 -5 6.36 -5 5 C-3.68 5 -2.36 5 -1 5 C-0.67 3.35 -0.34 1.7 0 0 Z " fill="#D3C295" transform="translate(461,453)"/>
<path d="M0 0 C1.32 0 2.64 0 4 0 C4 1.65 4 3.3 4 5 C-0.95 5 -5.9 5 -11 5 C-11 4.67 -11 4.34 -11 4 C-10.28972656 3.87882813 -9.57945312 3.75765625 -8.84765625 3.6328125 C-7.92855469 3.46523438 -7.00945313 3.29765625 -6.0625 3.125 C-5.14597656 2.96257813 -4.22945312 2.80015625 -3.28515625 2.6328125 C-2.53105469 2.42398438 -1.77695312 2.21515625 -1 2 C-0.67 1.34 -0.34 0.68 0 0 Z " fill="#E9E2D0" transform="translate(691,659)"/>
<path d="M0 0 C1.65 0 3.3 0 5 0 C4.67 2.97 4.34 5.94 4 9 C2.68 9 1.36 9 0 9 C0 6.03 0 3.06 0 0 Z " fill="#D7C596" transform="translate(479,669)"/>
<path d="M0 0 C0.33 0.99 0.66 1.98 1 3 C7.27 3 13.54 3 20 3 C20 2.34 20 1.68 20 1 C20.99 0.67 21.98 0.34 23 0 C23 1.32 23 2.64 23 4 C15.41 4 7.82 4 0 4 C0 2.68 0 1.36 0 0 Z " fill="#E6DBC2" transform="translate(404,566)"/>
<path d="M0 0 C0.33 1.32 0.66 2.64 1 4 C-4.94 4 -10.88 4 -17 4 C-17.33 4.99 -17.66 5.98 -18 7 C-18.33 6.34 -18.66 5.68 -19 5 C-18.67 4.34 -18.34 3.68 -18 3 C-15.234375 2.65625 -15.234375 2.65625 -11.75 2.5 C-7.37161148 2.30188287 -3.98828247 1.85919935 0 0 Z " fill="#E7DABC" transform="translate(553,557)"/>
<path d="M0 0 C1.65 0 3.3 0 5 0 C2.62722182 5.02470674 -0.21097855 6.56030983 -5 9 C-5 7.68 -5 6.36 -5 5 C-3.35 5 -1.7 5 0 5 C0 3.35 0 1.7 0 0 Z " fill="#DCC895" transform="translate(545,613)"/>
<path d="M0 0 C-0.639375 0.2475 -1.27875 0.495 -1.9375 0.75 C-4.18741541 1.81562433 -4.18741541 1.81562433 -4.75 4.125 C-4.8325 4.74375 -4.915 5.3625 -5 6 C-6.32 6 -7.64 6 -9 6 C-9 7.65 -9 9.3 -9 11 C-9.33 11 -9.66 11 -10 11 C-10.36783439 4.50159236 -10.36783439 4.50159236 -8.625 2.125 C-5.60041591 0.03105717 -3.64221933 -0.09584788 0 0 Z " fill="#F1ECDE" transform="translate(577,644)"/>
<path d="M0 0 C0.99 0 1.98 0 3 0 C2.67 1.98 2.34 3.96 2 6 C1.34 6 0.68 6 0 6 C-0.33 6.99 -0.66 7.98 -1 9 C-1.99 9 -2.98 9 -4 9 C-4 7.68 -4 6.36 -4 5 C-2.68 5 -1.36 5 0 5 C0 3.35 0 1.7 0 0 Z " fill="#E7DCBF" transform="translate(554,604)"/>
<path d="M0 0 C1.65 0 3.3 0 5 0 C3.375 2.9375 3.375 2.9375 1 6 C-2.25 6.875 -2.25 6.875 -5 7 C-5 6.01 -5 5.02 -5 4 C-3.35 4 -1.7 4 0 4 C0 2.68 0 1.36 0 0 Z " fill="#E5DCC5" transform="translate(395,543)"/>
<path d="M0 0 C1.32 0.33 2.64 0.66 4 1 C2.42353449 2.32074115 0.83854469 3.63131224 -0.75 4.9375 C-1.63171875 5.66839844 -2.5134375 6.39929688 -3.421875 7.15234375 C-5.76330955 8.83037185 -7.19661127 9.58735166 -10 10 C-10 9.01 -10 8.02 -10 7 C-9.0925 6.773125 -8.185 6.54625 -7.25 6.3125 C-3.55111676 4.81872023 -2.22094342 3.24599423 0 0 Z " fill="#FBF8EF" transform="translate(400,543)"/>
<path d="M0 0 C1.32 0.33 2.64 0.66 4 1 C3.01 1.495 3.01 1.495 2 2 C1.9175 2.763125 1.835 3.52625 1.75 4.3125 C0.67396753 8.16828301 -1.63665775 9.06786722 -5 11 C-5 9.02 -5 7.04 -5 5 C-3.35 5 -1.7 5 0 5 C0 3.35 0 1.7 0 0 Z " fill="#E2D3AF" transform="translate(428,514)"/>
<path d="M0 0 C0.33 0 0.66 0 1 0 C1.125 2.875 1.125 2.875 1 6 C0.34 6.66 -0.32 7.32 -1 8 C-2.32 8 -3.64 8 -5 8 C-5 6.35 -5 4.7 -5 3 C-3.35 3 -1.7 3 0 3 C0 2.01 0 1.02 0 0 Z " fill="#EEE6D0" transform="translate(564,591)"/>
<path d="M0 0 C4.62 0 9.24 0 14 0 C13.67 1.32 13.34 2.64 13 4 C12.505 3.67 12.01 3.34 11.5 3 C7.90909106 1.56363642 4.85543873 1.87148538 1 2 C0.67 2.66 0.34 3.32 0 4 C0 2.68 0 1.36 0 0 Z " fill="#DACCA7" transform="translate(474,435)"/>
<path d="M0 0 C0.99 0 1.98 0 3 0 C3.33 0.99 3.66 1.98 4 3 C7.63 3.66 11.26 4.32 15 5 C15 5.33 15 5.66 15 6 C13.04174127 6.02694851 11.08337774 6.04637218 9.125 6.0625 C8.03445313 6.07410156 6.94390625 6.08570313 5.8203125 6.09765625 C3 6 3 6 1 5 C0.375 2.4375 0.375 2.4375 0 0 Z " fill="#F9F5EA" transform="translate(661,364)"/>
<path d="M0 0 C0.33 0 0.66 0 1 0 C1 4.62 1 9.24 1 14 C-0.32 14 -1.64 14 -3 14 C-2.67 12.35 -2.34 10.7 -2 9 C-1.34 9 -0.68 9 0 9 C0 6.03 0 3.06 0 0 Z " fill="#C6B996" transform="translate(647,575)"/>
<path d="M0 0 C1.32 0.33 2.64 0.66 4 1 C3.67 2.32 3.34 3.64 3 5 C-0.63 5 -4.26 5 -8 5 C-8 4.67 -8 4.34 -8 4 C-6.865625 3.71125 -5.73125 3.4225 -4.5625 3.125 C-3.386875 2.75375 -2.21125 2.3825 -1 2 C-0.67 1.34 -0.34 0.68 0 0 Z " fill="#EFE6D1" transform="translate(513,570)"/>
<path d="M0 0 C0.99 0 1.98 0 3 0 C3 2.97 3 5.94 3 9 C2.01 9 1.02 9 0 9 C0 6.03 0 3.06 0 0 Z " fill="#E9D8AF" transform="translate(724,613)"/>
<path d="M0 0 C6.75 0.75 6.75 0.75 9 3 C10.32 3.66 11.64 4.32 13 5 C10.03 5 7.06 5 4 5 C4 3.68 4 2.36 4 1 C2.68 0.67 1.36 0.34 0 0 Z " fill="#AD644F" transform="translate(359,400)"/>
<path d="M0 0 C2 4 2 4 2 6 C2.66 6 3.32 6 4 6 C4.33 5.34 4.66 4.68 5 4 C5 5.65 5 7.3 5 9 C3.35 9 1.7 9 0 9 C0 6.03 0 3.06 0 0 Z " fill="#BBB6A4" transform="translate(624,613)"/>
<path d="M0 0 C2.31 0 4.62 0 7 0 C7.99 1.98 8.98 3.96 10 6 C8.35 6 6.7 6 5 6 C5 4.35 5 2.7 5 1 C3.35 1 1.7 1 0 1 C0 0.67 0 0.34 0 0 Z " fill="#F2ECDA" transform="translate(648,574)"/>
<path d="M0 0 C0.66 0 1.32 0 2 0 C2.33 1.32 2.66 2.64 3 4 C4.32 4.33 5.64 4.66 7 5 C7.33 6.65 7.66 8.3 8 10 C7.01 10 6.02 10 5 10 C5 8.35 5 6.7 5 5 C3.68 5 2.36 5 1 5 C0.67 3.35 0.34 1.7 0 0 Z " fill="#EEE4CC" transform="translate(671,612)"/>
<path d="M0 0 C-3.75 3 -3.75 3 -6 3 C-6 3.66 -6 4.32 -6 5 C-7.98 5 -9.96 5 -12 5 C-7.81374099 0.67419902 -6.05150555 -0.13155447 0 0 Z " fill="#F8F2E5" transform="translate(430,564)"/>
<path d="M0 0 C1.32 0 2.64 0 4 0 C3.11223998 3.69900008 2.05418136 7.34550461 1 11 C0.67 11 0.34 11 0 11 C0 7.37 0 3.74 0 0 Z " fill="#BF5749" transform="translate(386,385)"/>
<path d="M0 0 C0.80050781 0.03480469 1.60101562 0.06960938 2.42578125 0.10546875 C3.63814453 0.14607422 3.63814453 0.14607422 4.875 0.1875 C5.48988281 0.22230469 6.10476563 0.25710938 6.73828125 0.29296875 C6.73828125 0.95296875 6.73828125 1.61296875 6.73828125 2.29296875 C0.79828125 2.78796875 0.79828125 2.78796875 -5.26171875 3.29296875 C-2.26171875 0.29296875 -2.26171875 0.29296875 0 0 Z " fill="#F2E8CD" transform="translate(532.26171875,678.70703125)"/>
<path d="M0 0 C0.99 0 1.98 0 3 0 C3 1.32 3 2.64 3 4 C-1.29 4 -5.58 4 -10 4 C-10 3.67 -10 3.34 -10 3 C-9.36191406 2.95101562 -8.72382812 2.90203125 -8.06640625 2.8515625 C-7.24011719 2.77679687 -6.41382813 2.70203125 -5.5625 2.625 C-4.73878906 2.55539062 -3.91507813 2.48578125 -3.06640625 2.4140625 C-2.38449219 2.27742187 -1.70257812 2.14078125 -1 2 C-0.67 1.34 -0.34 0.68 0 0 Z " fill="#DACAA4" transform="translate(588,637)"/>
<path d="M0 0 C0.33 0 0.66 0 1 0 C1 2.97 1 5.94 1 9 C-0.65 9 -2.3 9 -4 9 C-3.71125 8.443125 -3.4225 7.88625 -3.125 7.3125 C-1.9586747 4.91505355 -0.9660119 2.48403061 0 0 Z " fill="#CCBE9A" transform="translate(633,608)"/>
<path d="M0 0 C4.29 0 8.58 0 13 0 C13 0.33 13 0.66 13 1 C12.33613281 1.04898438 11.67226563 1.09796875 10.98828125 1.1484375 C4.2887764 1.71125812 4.2887764 1.71125812 -2 4 C-1.34 2.68 -0.68 1.36 0 0 Z " fill="#F9F5E8" transform="translate(527,678)"/>
<path d="M0 0 C0.33 0 0.66 0 1 0 C1 3.3 1 6.6 1 10 C-0.65 10 -2.3 10 -4 10 C-3.34 9.67 -2.68 9.34 -2 9 C-1.31270746 6.88153715 -1.31270746 6.88153715 -0.875 4.4375 C-0.70742188 3.61121094 -0.53984375 2.78492188 -0.3671875 1.93359375 C-0.24601563 1.29550781 -0.12484375 0.65742187 0 0 Z " fill="#B4AE99" transform="translate(558,664)"/>
<path d="M0 0 C1.98 0 3.96 0 6 0 C5.67 0.66 5.34 1.32 5 2 C4.01 2 3.02 2 2 2 C1.67 2.99 1.34 3.98 1 5 C-0.65 5 -2.3 5 -4 5 C-2.68 4.34 -1.36 3.68 0 3 C0 2.01 0 1.02 0 0 Z " fill="#F6EFDE" transform="translate(586,635)"/>
<path d="M0 0 C1.65 0 3.3 0 5 0 C3.875 2.5 3.875 2.5 2 5 C-1.1875 5.3125 -1.1875 5.3125 -4 5 C-2.68 4.67 -1.36 4.34 0 4 C0 2.68 0 1.36 0 0 Z " fill="#CAC1A6" transform="translate(446,463)"/>
<path d="M0 0 C1.98 0 3.96 0 6 0 C5.3125 1.9375 5.3125 1.9375 4 4 C1.375 4.75 1.375 4.75 -1 5 C-0.67 3.35 -0.34 1.7 0 0 Z " fill="#DFCB9B" transform="translate(606,369)"/>
<path d="M0 0 C4.62 0.66 9.24 1.32 14 2 C14 2.33 14 2.66 14 3 C9.38 3 4.76 3 0 3 C0 2.01 0 1.02 0 0 Z " fill="#ECE2C8" transform="translate(484,680)"/>
<path d="M0 0 C1.98 0 3.96 0 6 0 C4.71937515 1.7074998 3.38232443 3.37373596 2 5 C1.34 5 0.68 5 0 5 C0 3.35 0 1.7 0 0 Z " fill="#EDDEB8" transform="translate(517,430)"/>
<path d="M0 0 C1.32 0.33 2.64 0.66 4 1 C3.01 1 2.02 1 1 1 C1 2.65 1 4.3 1 6 C-0.98 6.99 -2.96 7.98 -5 9 C-5 7.68 -5 6.36 -5 5 C-3.35 5 -1.7 5 0 5 C0 3.35 0 1.7 0 0 Z " fill="#C8BDA1" transform="translate(540,411)"/>
<path d="M0 0 C1.98 0 3.96 0 6 0 C4.35 1.65 2.7 3.3 1 5 C0.34 4.67 -0.32 4.34 -1 4 C-0.67 2.68 -0.34 1.36 0 0 Z " fill="#E4D3AA" transform="translate(578,383)"/>
<path d="M0 0 C2.64 0 5.28 0 8 0 C7.67 1.32 7.34 2.64 7 4 C4.69 3.01 2.38 2.02 0 1 C0 0.67 0 0.34 0 0 Z " fill="#ECE0BF" transform="translate(766,379)"/>
<path d="M0 0 C2.64 0 5.28 0 8 0 C7.67 1.32 7.34 2.64 7 4 C4.69 3.34 2.38 2.68 0 2 C0 1.34 0 0.68 0 0 Z " fill="#DFD2AD" transform="translate(668,364)"/>
<path d="M0 0 C1.65 0 3.3 0 5 0 C4.1875 1.9375 4.1875 1.9375 3 4 C2.01 4.33 1.02 4.66 0 5 C0 3.35 0 1.7 0 0 Z " fill="#C7BFA4" transform="translate(535,622)"/>
<path d="M0 0 C1.32 0.33 2.64 0.66 4 1 C2.68 2.65 1.36 4.3 0 6 C-1.32 5.67 -2.64 5.34 -4 5 C-3.01 4.34 -2.02 3.68 -1 3 C-0.67 2.01 -0.34 1.02 0 0 Z " fill="#B13A41" transform="translate(385,420)"/>
<path d="M0 0 C2.97 0 5.94 0 9 0 C9 0.33 9 0.66 9 1 C8.071875 1.28875 7.14375 1.5775 6.1875 1.875 C2.90208333 2.8875 2.90208333 2.8875 0 5 C0 3.35 0 1.7 0 0 Z " fill="#C7BB9A" transform="translate(545,406)"/>
<path d="M0 0 C3.02419525 0.58803797 6.01758453 1.22678118 9 2 C9 2.66 9 3.32 9 4 C6.75 4.25 6.75 4.25 4 4 C1.6875 2 1.6875 2 0 0 Z " fill="#F7F0DE" transform="translate(699,370)"/>
<path d="M0 0 C2.475 0.495 2.475 0.495 5 1 C5 3.31 5 5.62 5 8 C4.67 8 4.34 8 4 8 C4 6.35 4 4.7 4 3 C2.68 3 1.36 3 0 3 C0 2.01 0 1.02 0 0 Z " fill="#D1C5A5" transform="translate(653,656)"/>
<path d="M0 0 C1.65 0 3.3 0 5 0 C4.67 0.66 4.34 1.32 4 2 C3.34 2 2.68 2 2 2 C1.67 3.65 1.34 5.3 1 7 C0.67 7 0.34 7 0 7 C0 4.69 0 2.38 0 0 Z " fill="#E7E0CF" transform="translate(568,580)"/>
<path d="M0 0 C1.98 0 3.96 0 6 0 C4.6875 2 4.6875 2 3 4 C2.01 4 1.02 4 0 4 C0 2.68 0 1.36 0 0 Z " fill="#E6D09C" transform="translate(400,538)"/>
<path d="M0 0 C2.97 0 5.94 0 9 0 C9 0.33 9 0.66 9 1 C6 2 3 3 0 4 C0 2.68 0 1.36 0 0 Z " fill="#BCAF8B" transform="translate(414,528)"/>
<path d="M0 0 C1.2065625 0.0309375 1.2065625 0.0309375 2.4375 0.0625 C1.1175 0.3925 -0.2025 0.7225 -1.5625 1.0625 C-1.5625 2.3825 -1.5625 3.7025 -1.5625 5.0625 C-2.8825 5.0625 -4.2025 5.0625 -5.5625 5.0625 C-3.15007962 0.07683121 -3.15007962 0.07683121 0 0 Z " fill="#A87259" transform="translate(422.5625,399.9375)"/>
<path d="M0 0 C2.97 0 5.94 0 9 0 C9 0.33 9 0.66 9 1 C6 2 3 3 0 4 C0 2.68 0 1.36 0 0 Z " fill="#BEB9A6" transform="translate(564,392)"/>
<path d="M0 0 C2.97 0 5.94 0 9 0 C9 0.99 9 1.98 9 3 C5.47930015 2.41321669 3.28700157 1.64350079 0 0 Z " fill="#E6D8B3" transform="translate(699,369)"/>
<path d="M0 0 C0.33 0 0.66 0 1 0 C1.3125 2.8125 1.3125 2.8125 1 6 C-1.5 7.875 -1.5 7.875 -4 9 C-4 7.68 -4 6.36 -4 5 C-2.68 5 -1.36 5 0 5 C0 3.35 0 1.7 0 0 Z " fill="#D6C8A3" transform="translate(432,477)"/>
<path d="M0 0 C0.99 0 1.98 0 3 0 C3.36923077 4.55384615 3.36923077 4.55384615 1.5 6.8125 C1.005 7.204375 0.51 7.59625 0 8 C0 5.36 0 2.72 0 0 Z " fill="#BA3C40" transform="translate(390,376)"/>
</svg>
