<?xml version="1.0" standalone="no"?>
<!DOCTYPE svg PUBLIC "-//W3C//DTD SVG 20010904//EN"
 "http://www.w3.org/TR/2001/REC-SVG-20010904/DTD/svg10.dtd">
<svg version="1.0" xmlns="http://www.w3.org/2000/svg"
 width="1668.000000pt" height="2388.000000pt" viewBox="0 0 1668.000000 2388.000000"
 preserveAspectRatio="xMidYMid meet">

<g transform="translate(0.000000,2388.000000) scale(0.100000,-0.100000)"
fill="#000000" stroke="none">
<path d="M2137 13398 c-4 -7225 -4 -7308 -36 -7476 -6 -28 -13 -114 -17 -190
-7 -146 -35 -300 -84 -462 -33 -110 -40 -240 -13 -262 10 -8 53 -12 126 -12
137 -1 459 20 507 33 125 32 199 55 225 71 17 11 96 29 185 45 85 14 286 54
445 89 160 35 308 67 330 70 41 7 250 63 430 116 135 40 295 75 505 111 96 16
195 36 219 44 25 8 53 15 63 15 10 0 29 6 41 14 22 14 131 45 267 76 41 9 126
31 188 49 62 17 156 40 210 52 94 20 229 66 322 107 25 12 94 35 154 52 60 17
150 50 200 72 121 53 342 133 551 199 94 29 177 58 185 64 17 13 150 60 298
105 122 37 263 95 277 113 6 8 21 21 35 30 28 18 254 104 470 179 80 28 217
82 305 121 88 38 205 89 260 112 55 23 152 68 215 100 196 99 252 126 331 160
42 18 109 52 150 75 66 38 404 200 416 200 2 0 52 28 111 61 58 34 140 78 182
98 41 21 116 58 165 83 50 26 146 74 215 107 220 106 402 232 705 487 50 41
119 99 155 129 36 29 114 98 174 154 60 56 147 129 195 162 47 32 131 101 187
151 137 125 211 188 222 188 5 0 26 -48 47 -107 49 -145 107 -279 165 -388 27
-49 65 -130 85 -180 43 -106 79 -171 152 -279 29 -43 53 -83 53 -88 0 -17 149
-259 186 -302 20 -24 34 -50 34 -67 0 -21 36 -65 170 -207 93 -99 198 -202
232 -229 35 -28 128 -111 207 -186 79 -76 147 -137 151 -137 4 0 25 -14 46
-31 22 -18 77 -50 124 -71 47 -22 105 -49 130 -61 25 -12 70 -23 100 -25 56
-4 78 2 256 69 60 22 64 23 170 10 60 -8 114 -16 121 -18 10 -4 13 107 16 518
3 561 5 587 63 929 l27 155 -8 460 c-14 894 -20 1651 -13 1700 4 28 12 259 18
515 5 256 16 537 22 625 7 88 12 333 13 545 0 311 -3 410 -17 515 -15 105 -18
207 -18 539 l0 408 -26 -6 c-15 -4 -92 -18 -171 -32 -118 -19 -204 -26 -467
-34 -320 -10 -457 -6 -634 20 -56 8 -85 8 -105 1 -28 -11 -29 -13 -24 -64 3
-28 23 -108 45 -177 22 -69 56 -174 75 -235 19 -60 56 -159 82 -220 74 -173
87 -215 88 -281 1 -55 -5 -72 -71 -205 -85 -171 -102 -238 -102 -411 l0 -121
-40 -53 c-35 -44 -53 -57 -123 -87 -45 -20 -100 -38 -122 -42 -72 -12 -189
-46 -259 -76 -37 -16 -79 -29 -91 -29 -13 0 -62 -9 -110 -21 -95 -22 -375 -40
-450 -29 -72 11 -179 106 -228 200 -45 87 -45 125 0 172 28 29 115 75 183 96
38 12 194 44 300 62 74 12 171 53 188 80 6 10 16 45 23 79 10 49 11 66 1 81
-7 11 -12 25 -12 32 0 37 -105 164 -300 363 -278 284 -296 315 -321 543 -5 53
-12 125 -13 160 -5 87 -39 119 -101 96 -26 -10 -54 -77 -65 -156 -26 -175 -60
-303 -106 -397 -39 -79 -62 -110 -153 -205 -59 -61 -145 -159 -191 -218 -45
-60 -87 -108 -92 -108 -9 0 -5 21 22 120 29 104 31 146 9 166 -25 23 -31 17
-121 -119 -45 -66 -104 -140 -145 -178 -114 -107 -311 -215 -523 -284 -184
-60 -401 -246 -512 -439 -46 -81 -79 -148 -98 -207 -48 -143 -122 -209 -235
-209 -27 0 -106 -9 -175 -20 -69 -10 -204 -31 -300 -45 -96 -15 -209 -33 -250
-40 -41 -8 -123 -14 -182 -15 -158 0 -283 31 -400 101 -121 73 -154 132 -134
240 25 134 101 235 215 288 100 46 172 55 345 42 80 -6 149 -11 155 -11 16 0
99 114 121 165 11 25 39 76 63 113 24 37 59 96 78 132 41 79 176 222 309 328
198 158 261 223 326 334 166 279 205 349 238 421 19 43 72 138 116 212 120
199 138 296 62 329 -175 75 -518 7 -907 -179 -157 -75 -277 -118 -460 -163
-210 -53 -316 -64 -607 -61 -236 2 -246 2 -343 -25 -110 -29 -245 -92 -344
-160 -49 -35 -81 -48 -146 -61 -157 -33 -269 -6 -371 90 -57 54 -64 65 -64 99
0 42 42 126 63 126 7 0 36 16 64 35 29 19 57 35 62 35 12 0 82 79 101 114 34
64 -44 81 -144 32 -31 -15 -62 -33 -69 -40 -7 -7 -51 -29 -97 -48 -153 -64
-177 -71 -228 -65 -94 12 -119 25 -174 88 -29 34 -90 99 -135 145 -106 108
-127 148 -120 227 8 86 33 111 237 236 198 121 253 161 433 315 111 95 131
117 160 175 l32 66 0 350 c1 347 1 351 24 403 31 70 89 143 177 223 82 74 157
116 332 184 92 36 135 58 168 89 42 38 47 47 64 129 31 140 92 263 160 321 48
40 89 35 234 -29 151 -67 207 -79 351 -72 125 5 161 17 278 94 148 98 637 499
637 523 0 11 283 233 413 323 540 374 787 501 1205 617 251 70 498 92 782 71
393 -28 557 -42 690 -56 676 -73 955 -108 1146 -144 60 -11 199 -32 309 -46
110 -14 232 -32 270 -41 39 -9 104 -19 145 -23 41 -3 81 -10 88 -14 16 -10 16
168 2 783 -19 830 -27 988 -50 1061 -43 134 -50 214 -50 602 l0 367 -6255 0
-6255 0 -3 -7202z m3537 4569 c342 -91 567 -328 616 -652 33 -216 -52 -503
-227 -775 -102 -157 -256 -321 -366 -389 -20 -12 -34 -27 -31 -33 4 -6 49 -62
100 -124 89 -108 105 -134 85 -134 -8 0 -220 71 -307 103 -23 8 -60 25 -82 36
-37 19 -47 20 -87 10 -29 -7 -97 -10 -188 -6 -123 4 -159 9 -267 40 -330 94
-561 228 -712 416 -124 153 -174 305 -165 496 7 128 24 199 76 311 169 360
528 627 956 708 126 24 130 24 320 21 156 -2 193 -6 279 -28z"/>
</g>
</svg>
