<?xml version="1.0" encoding="UTF-8"?>
<svg version="1.1" xmlns="http://www.w3.org/2000/svg" width="1668" height="2388">
<path d="M0 0 C412.83 0 825.66 0 1251 0 C1251.33 22.77 1251.66 45.54 1252 69 C1252.99 71.64 1253.98 74.28 1255 77 C1255.55619581 79.44623159 1256.05772452 81.90562859 1256.5 84.375 C1257.24144053 88.49705627 1258.08445782 92.24594885 1259.48266602 96.1875 C1261.7245673 103.62480026 1261.79912343 111.27199955 1262.12109375 118.9765625 C1262.19975153 120.656242 1262.27890028 122.33589857 1262.35850525 124.01553345 C1263.20632049 142.52910659 1263.62610611 161.05616959 1264.00495148 179.58420944 C1264.08387505 183.41157387 1264.16645809 187.2388565 1264.24892807 191.0661459 C1264.4337807 199.64670015 1264.61336218 208.22734929 1264.78857422 216.80810547 C1264.93710864 224.07513531 1265.09729232 231.34175104 1265.26820374 238.60829163 C1266.6275084 296.70179346 1266.30368149 354.83792399 1265.5 412.9375 C1263.69114539 505.65039747 1263.69114539 505.65039747 1266.86066628 598.27142715 C1267.67358456 610.54435552 1268.21155687 622.8044753 1268.45703125 635.1015625 C1268.47247168 635.85932983 1268.4879121 636.61709717 1268.50382042 637.39782715 C1268.58326222 641.3479195 1268.65749124 645.29806932 1268.72680664 649.24835205 C1268.78231387 652.40571072 1268.8447511 655.56280841 1268.91333008 658.71990967 C1268.99383222 662.46223744 1269.05863641 666.20451844 1269.11133385 669.9473381 C1269.13334569 671.34981557 1269.16046177 672.75222284 1269.19285011 674.15449905 C1269.23640578 676.09361583 1269.25898649 678.03316988 1269.28051758 679.97265625 C1269.2989119 681.06843994 1269.31730621 682.16422363 1269.33625793 683.29321289 C1269 686 1269 686 1267.60746765 687.81420898 C1266 689 1266 689 1264 690 C1263.92997119 701.14559054 1263.87692359 712.29112729 1263.84456348 723.43689442 C1263.82901915 728.61434099 1263.80799062 733.79163521 1263.77368164 738.96899414 C1263.74068188 743.98111621 1263.72306297 748.99309331 1263.71536827 754.00531578 C1263.70989662 755.90152959 1263.69921627 757.79773699 1263.68280983 759.69388771 C1263.59701664 770.03655606 1264.10321735 779.82010581 1265.91787815 790.0083847 C1267.38964145 798.57986764 1267.39802093 807.03247208 1267.328125 815.70703125 C1267.32505412 817.4142795 1267.32318813 819.12153028 1267.32244873 820.82878113 C1267.31790368 824.36227392 1267.30369369 827.89553136 1267.28125 831.42895508 C1267.25268779 835.94661375 1267.24200332 840.46409108 1267.2375679 844.98183155 C1267.23241332 849.32775441 1267.21790566 853.67363247 1267.203125 858.01953125 C1267.20124428 858.83844156 1267.19936356 859.65735188 1267.19742584 860.50107765 C1267.19052728 862.82084853 1267.17688533 865.14047946 1267.16113281 867.46020508 C1267.15430481 868.77523514 1267.14747681 870.0902652 1267.14044189 871.44514465 C1267.01075919 874.72766424 1266.59503987 877.77499089 1266 881 C1265.7904269 883.63311184 1265.62139075 886.24957834 1265.49609375 888.88671875 C1265.45528183 889.72555099 1265.41446991 890.56438324 1265.37242126 891.42863464 C1264.95297359 900.82984444 1264.74950593 910.23691172 1264.53515625 919.64453125 C1264.50608248 920.91502131 1264.50608248 920.91502131 1264.47642136 922.21117783 C1264.29438332 930.2019204 1264.1164546 938.19274535 1263.95043945 946.18383789 C1263.85844714 950.59672932 1263.75896665 955.00940427 1263.65517998 959.42203331 C1263.6178018 961.0692422 1263.58302409 962.71651288 1263.5512867 964.3638401 C1263.37140633 973.65680787 1262.86629552 982.83423529 1261.96337891 992.08618164 C1260.77377471 1004.62996198 1260.82301623 1017.0759561 1260.98828125 1029.6640625 C1261.01204203 1032.07603115 1261.03490404 1034.48800879 1261.05693054 1036.8999939 C1261.10504893 1041.92724212 1261.16025683 1046.9543393 1261.22143555 1051.98144531 C1261.29836996 1058.30652392 1261.36311129 1064.63164571 1261.42321014 1070.95690441 C1261.63990552 1093.64889947 1261.91112912 1116.33464172 1262.58518791 1139.01807213 C1263.04847135 1154.64628416 1263.28767961 1170.27008406 1263.35009766 1185.9050293 C1263.36351768 1188.93950953 1263.39164541 1191.97333061 1263.43212891 1195.00756836 C1263.69056389 1214.88618796 1262.38439271 1233.36882634 1258.55429077 1252.9148407 C1257.62646858 1258.07906028 1257.10798552 1263.27198068 1256.72305298 1268.50196838 C1256.24219135 1274.01880312 1254.45342595 1278.0931481 1252 1283 C1251.89709329 1284.33004516 1251.85360158 1285.66496404 1251.84178162 1286.99893188 C1251.8319928 1287.83468246 1251.82220398 1288.67043304 1251.81211853 1289.5315094 C1251.80636307 1290.45004196 1251.8006076 1291.36857452 1251.79467773 1292.31494141 C1251.77982834 1293.76378471 1251.77982834 1293.76378471 1251.76467896 1295.24189758 C1251.73300784 1298.44509401 1251.70828435 1301.64830528 1251.68359375 1304.8515625 C1251.66302907 1307.06831251 1251.64203273 1309.28505855 1251.62062073 1311.50180054 C1251.56534988 1317.34449051 1251.51596273 1323.18721616 1251.46777344 1329.02996826 C1251.41759498 1334.98876125 1251.36188986 1340.94750225 1251.30664062 1346.90625 C1251.19899774 1358.60412228 1251.09756641 1370.30203965 1251 1382 C1249.85402344 1381.84402344 1248.70804688 1381.68804688 1247.52734375 1381.52734375 C1245.99745852 1381.33024197 1244.46750694 1381.13365474 1242.9375 1380.9375 C1241.80924805 1380.7818457 1241.80924805 1380.7818457 1240.65820312 1380.62304688 C1234.05808911 1379.79446113 1228.28675608 1380.22467417 1222.08203125 1382.8125 C1221.22029297 1383.16570312 1220.35855469 1383.51890625 1219.47070312 1383.8828125 C1218.59349609 1384.25148438 1217.71628906 1384.62015625 1216.8125 1385 C1215.04911796 1385.73143911 1213.28482694 1386.46069156 1211.51953125 1387.1875 C1210.74714111 1387.51105469 1209.97475098 1387.83460937 1209.17895508 1388.16796875 C1198.73180259 1392.15720076 1189.16240812 1390.27707201 1179.25610352 1385.91430664 C1177.16251186 1384.95960603 1175.08150851 1383.98069612 1173 1383 C1171.82050781 1382.47535156 1170.64101562 1381.95070313 1169.42578125 1381.41015625 C1163.42257268 1378.62638057 1159.89268401 1376.29837546 1156 1371 C1154.81641409 1369.90999996 1153.60499571 1368.84984578 1152.375 1367.8125 C1148.91350666 1364.8669651 1145.68768684 1361.7359104 1142.5 1358.5 C1138.80123917 1354.75577037 1135.0328214 1351.16180782 1131.02734375 1347.74609375 C1128.64038486 1345.69027366 1126.32437277 1343.56375271 1124 1341.4375 C1121.11848018 1338.82351855 1118.25495538 1336.40720312 1115.0625 1334.1875 C1110.30250326 1330.73530035 1106.56620626 1326.3226698 1102.671875 1321.9609375 C1100.42787172 1319.47416194 1098.14036047 1317.09403565 1095.75 1314.75 C1092.56322838 1311.61515134 1089.62517287 1308.33444247 1086.73046875 1304.9296875 C1085.00198061 1303.00220863 1083.16372139 1301.30370563 1081.25 1299.5625 C1078.03761181 1296.42846275 1076.99723063 1293.64365077 1075.84765625 1289.36938477 C1074.95936034 1286.88640327 1073.92007605 1285.34964857 1072.26953125 1283.30859375 C1068.86489127 1278.91776809 1066.05588824 1274.28863481 1063.25 1269.5 C1062.19911039 1267.72715644 1061.14701018 1265.95502996 1060.09375 1264.18359375 C1059.31451172 1262.87237549 1059.31451172 1262.87237549 1058.51953125 1261.53466797 C1056.30933749 1257.84793409 1054.03777414 1254.20144876 1051.75 1250.5625 C1051.34475098 1249.91667969 1050.93950195 1249.27085938 1050.52197266 1248.60546875 C1049.73146062 1247.34630289 1048.94061695 1246.08734515 1048.14941406 1244.82861328 C1035.91079655 1225.35808541 1035.91079655 1225.35808541 1033.125 1215.5625 C1031.06115375 1208.55029798 1027.87109156 1203.25159768 1023.0546875 1197.796875 C1020.39239136 1194.17291295 1018.81224559 1190.3993495 1017.125 1186.25 C1016.78275391 1185.42177734 1016.44050781 1184.59355469 1016.08789062 1183.74023438 C1013.76052384 1178.04100285 1011.57015389 1172.29744135 1009.5 1166.5 C1009.24492676 1165.78875977 1008.98985352 1165.07751953 1008.72705078 1164.34472656 C1007.71365414 1161.43041116 1007 1159.10912873 1007 1156 C999.28363044 1160.87349656 992.3780499 1166.63146725 985.81005859 1172.95043945 C980.63995202 1177.91204025 976.11822395 1181.90180947 969.48046875 1184.79296875 C959.63446365 1189.58417438 951.49796675 1198.01702741 943.61572266 1205.47705078 C940.99554449 1207.94678052 938.34287108 1210.38072582 935.6875 1212.8125 C935.18460449 1213.27325928 934.68170898 1213.73401855 934.16357422 1214.20874023 C929.12040159 1218.81952144 923.98479403 1223.30936499 918.78515625 1227.7421875 C917.5857979 1228.7654614 916.38658341 1229.78890394 915.1875 1230.8125 C914.27943604 1231.58726685 914.27943604 1231.58726685 913.35302734 1232.37768555 C909.58731959 1235.60306107 905.89783102 1238.89192577 902.25 1242.25 C897.34017681 1246.74470694 892.24771403 1250.90895666 887 1255 C885.53820313 1256.18916016 885.53820313 1256.18916016 884.046875 1257.40234375 C876.50855123 1263.47376957 868.63273295 1268.33874508 860.09570312 1272.88232422 C857.97725831 1274.01212855 855.87102546 1275.16250347 853.765625 1276.31640625 C846.11326669 1280.47592511 838.41261176 1284.30774794 830.3515625 1287.61767578 C827.41905262 1288.84032337 824.81249983 1290.12612235 822.171875 1291.90234375 C817.19092831 1295.19639347 811.74501437 1297.47898828 806.31445312 1299.9375 C801.27398147 1302.27468128 796.55929932 1304.83837953 791.86328125 1307.8125 C784.2776111 1312.57182847 776.32771227 1316.40520575 768.25 1320.25 C766.79527645 1320.94990497 765.34084803 1321.65042369 763.88671875 1322.3515625 C758.2743212 1325.0504876 752.66366706 1327.74060431 746.94921875 1330.21875 C742.97783626 1331.95593512 739.29188671 1334.04940907 735.5625 1336.25 C729.11593631 1339.96722137 722.54225609 1343.09959301 715.71533203 1346.04980469 C710.70724511 1348.21993984 705.80352492 1350.5281196 700.9375 1353 C695.3922681 1355.8144524 689.81664479 1358.54441357 684.1875 1361.1875 C683.53064209 1361.49623047 682.87378418 1361.80496094 682.19702148 1362.12304688 C671.82895975 1366.97306011 661.37240713 1371.61432675 650.8828125 1376.19384766 C648.73922061 1377.12970611 646.59613113 1378.06670735 644.453125 1379.00390625 C643.06773706 1379.60944072 641.68232137 1380.21491171 640.296875 1380.8203125 C639.35288849 1381.23290817 639.35288849 1381.23290817 638.38983154 1381.65383911 C636.5940191 1382.4377236 634.79702108 1383.21889023 633 1384 C632.37631027 1384.27587448 631.75262054 1384.55174896 631.11003113 1384.83598328 C627.02026541 1386.62805816 623.19490696 1387.69510132 618.8125 1388.5625 C600.77007567 1392.4790513 583.36848589 1399.9252615 566.24609375 1406.72265625 C564.18390606 1407.53413083 562.10237917 1408.29920694 560 1409 C558.89163577 1410.88316159 558.89163577 1410.88316159 558 1413 C555.75261128 1416.37108308 554.89458151 1416.69322828 551.22265625 1418.05078125 C550.24409668 1418.41631104 549.26553711 1418.78184082 548.25732422 1419.15844727 C547.20303223 1419.53928467 546.14874023 1419.92012207 545.0625 1420.3125 C543.97727051 1420.71202881 542.89204102 1421.11155762 541.77392578 1421.52319336 C534.60071003 1424.13637616 527.38382214 1426.53687026 520.08178711 1428.76098633 C514.01079004 1430.62637649 508.07429189 1432.77976492 502.125 1435 C489.66416032 1439.62708778 476.96119926 1443.14962575 464.125 1446.5625 C454.38266855 1449.22653976 445.23335707 1451.93250799 436.671875 1457.40234375 C426.42950096 1463.52680425 415.16849805 1466.99136515 403.78149414 1470.30004883 C397.26110548 1472.22329808 391.0167885 1474.49693225 384.75 1477.125 C376.20594103 1480.67279321 367.68009332 1483.16786465 358.69824219 1485.33740234 C354.61103684 1486.3410827 350.54290551 1487.41583297 346.47167969 1488.48217773 C338.26814695 1490.63058215 330.06006632 1492.75221563 321.8203125 1494.7578125 C319.44258291 1495.33802791 317.0649782 1495.91875533 314.6875 1496.5 C312.91947021 1496.93179565 312.91947021 1496.93179565 311.11572266 1497.37231445 C304.08766477 1499.12370139 297.27841625 1501.19566951 290.4375 1503.5625 C277.31766842 1508.03463178 263.63600059 1509.81536797 249.99612427 1512.00172424 C243.05429821 1513.12698961 236.22207522 1514.58447513 229.3828125 1516.20703125 C226.53095584 1516.87553807 223.6961169 1517.43217164 220.8125 1517.9375 C216.8742731 1518.70787828 213.17332378 1519.8948108 209.375 1521.1875 C191.70140484 1527.1962962 174.01578117 1531.78412797 155.69946289 1535.29980469 C144.39736344 1537.47502136 133.20558486 1539.99328065 122.00579834 1542.64071655 C110.27271295 1545.40001593 98.52312257 1547.58620494 86.58862305 1549.27783203 C80.80904201 1550.14101358 76.09161306 1551.11394781 70.99633789 1553.98779297 C66.92882129 1556.05015372 62.45430804 1557.03017892 58.0625 1558.1875 C56.65581055 1558.57711914 56.65581055 1558.57711914 55.22070312 1558.97460938 C44.87010156 1561.75826664 34.75157238 1562.21118418 24.08398438 1562.60546875 C19.97712883 1562.7712291 15.92176868 1562.96133079 11.84765625 1563.51953125 C7.69875914 1564.03761688 3.67450415 1564.18369808 -0.5 1564.1875 C-1.20769531 1564.19974609 -1.91539062 1564.21199219 -2.64453125 1564.22460938 C-8.30191557 1564.24012323 -14.18487457 1563.92090912 -18.9921875 1560.640625 C-20.29670176 1558.51699714 -20.27214931 1557.22557072 -20.125 1554.75 C-19.97211775 1551.87581376 -20.06707407 1549.69665939 -20.6953125 1546.85546875 C-21.11522974 1541.5419006 -19.51739398 1537.52612549 -17.75 1532.5625 C-14.98853919 1524.41516785 -12.88858706 1516.50517743 -11.5078125 1508.01953125 C-11 1505 -11 1505 -10 1502 C-9.88644631 1500.49743502 -9.82207561 1498.990863 -9.7890625 1497.484375 C-9.74954468 1496.11998291 -9.74954468 1496.11998291 -9.70922852 1494.72802734 C-9.6675354 1493.25390381 -9.6675354 1493.25390381 -9.625 1491.75 C-9.30049903 1482.57580111 -8.44229602 1473.60382805 -7.15893555 1464.51782227 C-6.11284409 1457.08567035 -5.33876247 1449.65620133 -4.73461914 1442.17529297 C-4.39485721 1438.21900735 -3.90722778 1434.45018606 -3.00390625 1430.58203125 C-2.0454984 1425.9622658 -1.68315656 1421.37203163 -1.44592243 1416.66961879 C-1.40382488 1415.84226372 -1.36172733 1415.01490866 -1.31835409 1414.16248223 C-0.81862024 1403.34685572 -0.85590569 1392.52881502 -0.8613348 1381.70406818 C-0.85888263 1379.28409152 -0.85599736 1376.86411526 -0.85272202 1374.44413957 C-0.84660471 1369.19567018 -0.84351512 1363.94720825 -0.84316199 1358.69873569 C-0.84261341 1350.84185643 -0.83629216 1342.98498876 -0.82889687 1335.12811334 C-0.81645387 1321.73383235 -0.80865569 1308.33955231 -0.80341911 1294.94526672 C-0.79809663 1281.38035051 -0.79060638 1267.81543804 -0.78049088 1254.25052452 C-0.77985224 1253.39240255 -0.77921361 1252.53428058 -0.77855562 1251.65015491 C-0.77528905 1247.27426168 -0.7719874 1242.89836849 -0.76867336 1238.5224753 C-0.74478359 1206.88353934 -0.7256585 1175.24460195 -0.70907402 1143.60566139 C-0.69263986 1112.28024947 -0.67415804 1080.95483984 -0.65294075 1049.62943077 C-0.65195316 1048.16928178 -0.65195316 1048.16928178 -0.65094561 1046.67963482 C-0.64493096 1037.78861397 -0.63889113 1028.89759315 -0.63282111 1020.00657234 C-0.61773312 997.90610084 -0.60296075 975.80562913 -0.58840275 953.70515728 C-0.58773961 952.69883473 -0.58707647 951.69251218 -0.58639324 950.65569501 C-0.5541758 901.72334568 -0.52559518 852.79099432 -0.49731445 803.85864258 C-0.48750039 786.88149005 -0.47767023 769.90433754 -0.46777344 752.92718506 C-0.46715964 751.87423698 -0.46654584 750.8212889 -0.46591344 749.7364333 C-0.43735181 700.77781386 -0.40619438 651.81919618 -0.37439038 602.86057875 C-0.37230949 599.65666097 -0.37023031 596.45274318 -0.36815169 593.24882539 C-0.34648821 559.85861974 -0.32470006 526.46841417 -0.30285783 493.07820864 C-0.3022338 492.12423894 -0.30160977 491.17026925 -0.30096683 490.18739138 C-0.2998313 488.45160552 -0.29869563 486.71581967 -0.29755975 484.98003382 C-0.19179745 323.32002619 -0.09670999 161.66001378 0 0 Z " fill="#092A5D" transform="translate(214,328)"/>
<path d="M0 0 C1.14976318 0.16508057 2.29952637 0.33016113 3.48413086 0.50024414 C13.01594649 1.88167597 22.53073964 3.36720907 32.04296875 4.87680054 C40.02921186 6.14340555 48.02009737 7.35740378 56.02734375 8.484375 C56.82048477 8.59616592 57.61362579 8.70795685 58.43080139 8.82313538 C62.27920987 9.36410895 66.12837506 9.89881924 69.97875977 10.42553711 C81.47219716 12.01698027 81.47219716 12.01698027 86.08203125 13.23828125 C90.54554163 14.39624337 94.8612102 14.56146516 99.44921875 14.78125 C103.22703682 15.20691964 106.13168883 16.44084442 109.5 18.125 C109.53123957 31.10415606 109.55124652 44.08331142 109.5625 57.0625 C109.56335602 58.04793415 109.56421204 59.0333683 109.56509399 60.04866409 C109.58685831 88.55190419 109.43942419 117.0467176 109.03558731 145.54708862 C107.16497075 239.51809785 107.16497075 239.51809785 110.36066628 333.39642715 C111.17358456 345.66935552 111.71155687 357.9294753 111.95703125 370.2265625 C111.97247168 370.98432983 111.9879121 371.74209717 112.00382042 372.52282715 C112.08326222 376.4729195 112.15749124 380.42306932 112.22680664 384.37335205 C112.28231387 387.53071072 112.3447511 390.68780841 112.41333008 393.84490967 C112.49383222 397.58723744 112.55863641 401.32951844 112.61133385 405.0723381 C112.63334569 406.47481557 112.66046177 407.87722284 112.69285011 409.27949905 C112.73640578 411.21861583 112.75898649 413.15816988 112.78051758 415.09765625 C112.7989119 416.19343994 112.81730621 417.28922363 112.83625793 418.41821289 C112.5 421.125 112.5 421.125 111.22050476 422.9375 C108.06278955 425.11696901 104.21148766 425.4553512 100.5 426.125 C99.4466748 426.32496582 98.39334961 426.52493164 97.30810547 426.73095703 C93.68852309 427.40717635 90.06408434 428.04996274 86.4375 428.6875 C85.22900391 428.90857422 84.02050781 429.12964844 82.77539062 429.35742188 C68.4199267 431.87552392 54.00805655 432.26024225 39.47363281 432.62768555 C37.13333925 432.68728762 34.79325029 432.75251275 32.453125 432.81835938 C2.76542081 433.62362532 2.76542081 433.62362532 -11.6875 432.1875 C-12.64462891 432.10048828 -13.60175781 432.01347656 -14.58789062 431.92382812 C-18.5445836 431.55519213 -22.46781203 431.12960749 -26.40234375 430.56640625 C-30.1923788 430.0263382 -33.67722261 429.99318009 -37.5 430.125 C-38.94086552 431.35763383 -38.94086552 431.35763383 -38.9375 435.0625 C-38.8449001 441.67413286 -36.58723988 447.46317441 -34.40625 453.609375 C-32.50853983 458.98488029 -30.86174361 464.42572933 -29.21362305 469.88208008 C-24.90836416 484.11454461 -20.0589551 497.63228998 -13.6875 511.0625 C-10.20451546 518.660694 -8.03020864 526.92047358 -10.5 535.125 C-12.32598733 539.15431646 -14.31489799 543.06891936 -16.36328125 546.98828125 C-18.33960159 550.77394627 -20.14940605 554.59291444 -21.875 558.5 C-22.33648438 559.53898437 -22.79796875 560.57796875 -23.2734375 561.6484375 C-26.8247091 571.71414362 -26.7980008 581.55555814 -26.5390625 592.13671875 C-26.60915991 599.89124446 -28.02292779 604.36688868 -33.30664062 610.13232422 C-36.37195706 612.91717648 -38.82765799 614.36956847 -42.6875 615.9375 C-43.35966553 616.21263428 -44.03183105 616.48776855 -44.72436523 616.77124023 C-51.23005288 619.29742796 -57.97317124 620.79840362 -64.77880859 622.27807617 C-70.22085186 623.48482467 -75.20752331 625.02034249 -80.3125 627.25 C-87.95049101 630.50198307 -95.34640844 631.88835821 -103.5 633.125 C-104.55832031 633.31835938 -105.61664062 633.51171875 -106.70703125 633.7109375 C-114.70552039 635.07196278 -122.71538759 635.50371777 -130.8125 635.875 C-132.47708252 635.96031982 -132.47708252 635.96031982 -134.17529297 636.04736328 C-144.09994486 636.42753246 -151.62588549 635.93408113 -159.1875 629.125 C-160.02148315 628.39676025 -160.02148315 628.39676025 -160.87231445 627.65380859 C-166.89826641 622.18566735 -170.80270629 615.78970792 -173.5 608.125 C-173.63223492 604.02571736 -173.56178487 601.61149882 -171.171875 598.265625 C-160.80019331 588.07432039 -144.78900532 585.83003353 -131.0625 583.5 C-117.77026592 581.39938173 -117.77026592 581.39938173 -105.5 576.125 C-104.84 576.125 -104.18 576.125 -103.5 576.125 C-100.33434309 565.70471267 -99.41396381 559.56261228 -104.30859375 549.578125 C-112.19284629 536.35708802 -124.58526054 525.92548705 -135.51269531 515.30419922 C-152.37106217 498.88691448 -152.37106217 498.88691448 -157.5 489.125 C-157.89952881 488.45146484 -158.29905762 487.77792969 -158.71069336 487.08398438 C-163.57852282 478.42910655 -163.82681437 468.01715307 -164.5625 458.3125 C-164.56342309 447.93047248 -164.56342309 447.93047248 -168.5 439.125 C-171.45788569 438.7082448 -171.45788569 438.7082448 -174.5 439.125 C-180.13976016 443.69892422 -180.97560401 451.77876057 -181.9375 458.5625 C-185.98696566 484.17636608 -193.55111601 501.44988066 -212.29589844 519.74536133 C-218.73406366 526.13502392 -224.0536106 533.10278521 -229.31054688 540.47021484 C-230.96248482 542.76841586 -232.63002259 544.99891699 -234.5 547.125 C-235.16 547.125 -235.82 547.125 -236.5 547.125 C-236.02294177 544.85372279 -235.54328294 542.58299168 -235.0625 540.3125 C-234.79566406 539.04792969 -234.52882813 537.78335938 -234.25390625 536.48046875 C-233.5 533.125 -233.5 533.125 -232.5 530.125 C-232.4314505 528.23029184 -232.41519628 526.3333166 -232.4375 524.4375 C-232.45103516 522.94669922 -232.45103516 522.94669922 -232.46484375 521.42578125 C-232.47644531 520.66652344 -232.48804688 519.90726563 -232.5 519.125 C-236.34339329 518.65828912 -236.34339329 518.65828912 -237.86865234 520.46679688 C-238.27035645 521.08619141 -238.67206055 521.70558594 -239.0859375 522.34375 C-239.538479 523.0248584 -239.99102051 523.7059668 -240.45727539 524.40771484 C-241.15904907 525.505271 -241.15904907 525.505271 -241.875 526.625 C-242.85982655 528.10733626 -243.84549371 529.5891144 -244.83203125 531.0703125 C-245.53126709 532.13427246 -245.53126709 532.13427246 -246.24462891 533.21972656 C-253.74034674 544.59595799 -262.67342309 553.31121077 -274.5 560.125 C-275.67260318 560.83995291 -276.8444391 561.55616527 -278.015625 562.2734375 C-287.1282001 567.73910271 -296.51134671 571.68795999 -306.4921875 575.30078125 C-326.03529661 582.37976361 -341.4030282 592.81300928 -354.5 609.125 C-355.00917969 609.74632812 -355.51835938 610.36765625 -356.04296875 611.0078125 C-364.25558871 621.43720649 -369.79337636 633.97852964 -374 646.5 C-376.55650042 652.67820935 -379.5173334 657.60358007 -385.75 660.5 C-390.24638671 661.96504152 -394.67029947 662.56388595 -399.35546875 663.01171875 C-409.75655304 664.09002377 -420.0880077 665.57805124 -430.43188477 667.10180664 C-433.56140901 667.56233945 -436.69176675 668.01684807 -439.82226562 668.47070312 C-452.2209275 670.27791257 -452.2209275 670.27791257 -464.56425476 672.42271423 C-472.16056574 673.85128782 -479.50706716 674.60746264 -487.25 674.5 C-488.3212915 674.49129883 -489.39258301 674.48259766 -490.49633789 674.47363281 C-498.20691312 674.33057294 -505.16436015 673.64628659 -512.5 671.125 C-513.35980469 670.8465625 -514.21960938 670.568125 -515.10546875 670.28125 C-524.45925927 666.91678581 -533.9778103 661.6401322 -539.5 653.125 C-542.39520354 644.43938938 -540.10003175 635.52755819 -536.24609375 627.51953125 C-530.25402456 616.72727584 -521.72792571 610.85078729 -509.9609375 607.375 C-501.85007801 605.52108926 -493.68523685 605.84706436 -485.45703125 606.6953125 C-474.66171884 608.11837481 -474.66171884 608.11837481 -464.44921875 605.52734375 C-462.21231755 602.84216575 -460.90645786 600.32669268 -459.5 597.125 C-458.85032539 595.83973769 -458.19229947 594.55867326 -457.52734375 593.28125 C-456.11977304 590.54681414 -454.76411013 587.79406586 -453.4375 585.01953125 C-451.37409994 580.77455832 -448.93008029 576.85579043 -446.30297852 572.93652344 C-444.52567145 570.16503148 -442.97187706 567.33446679 -441.40234375 564.44140625 C-437.63185783 557.95025403 -433.01164418 552.99196556 -427.625 547.8125 C-426.77808594 546.97138672 -425.93117188 546.13027344 -425.05859375 545.26367188 C-419.82267589 540.12798215 -414.38031988 535.50161908 -408.5 531.125 C-405.11548072 528.5156775 -401.79397184 525.8479538 -398.5 523.125 C-397.47648437 522.30902344 -396.45296875 521.49304687 -395.3984375 520.65234375 C-385.46813621 512.39177879 -379.69436378 502.31957779 -373.5 491.125 C-372.75477143 489.82092793 -372.00638985 488.51864923 -371.25390625 487.21875 C-369.94329864 484.95431998 -368.64723541 482.68395354 -367.359375 480.40625 C-366.09176829 478.16929698 -364.80988288 475.94038951 -363.515625 473.71875 C-359.99815925 467.67795911 -356.69368631 461.59424525 -353.625 455.3125 C-348.82888737 445.51383546 -343.47182878 435.89394146 -337.28125 426.90234375 C-333.20544985 420.54731326 -333.26675135 413.47233247 -333.5 406.125 C-335.01870698 405.639136 -336.54010699 405.16168799 -338.0625 404.6875 C-338.90941406 404.42066406 -339.75632812 404.15382813 -340.62890625 403.87890625 C-346.94736037 402.21977476 -352.79441914 402.03263969 -359.25 402.4375 C-359.98476563 402.47294922 -360.71953125 402.50839844 -361.4765625 402.54492188 C-373.40132909 403.23606319 -384.31999139 406.44324095 -395.5625 410.25 C-396.29332794 410.49521393 -397.02415588 410.74042786 -397.77713013 410.99307251 C-408.99822287 414.76710377 -419.82340209 418.99658288 -430.5 424.125 C-442.91454212 430.00408995 -455.23636108 434.54002643 -468.5 438.125 C-469.34385254 438.35848145 -470.18770508 438.59196289 -471.05712891 438.83251953 C-473.5963431 439.53050028 -476.14026261 440.20694155 -478.6875 440.875 C-479.42145996 441.07375732 -480.15541992 441.27251465 -480.91162109 441.47729492 C-497.98265185 445.78661268 -515.25631563 445.3070407 -532.71899414 445.00854492 C-557.88661491 444.61160397 -581.75882903 447.95129433 -602.375 463.8125 C-611.7239005 470.54007183 -624.21105813 472.5103987 -635.5 471.125 C-647.8901516 468.33687587 -647.8901516 468.33687587 -652.5 464.125 C-652.5 463.465 -652.5 462.805 -652.5 462.125 C-653.3353125 461.815625 -653.3353125 461.815625 -654.1875 461.5 C-657.39132084 459.59502545 -659.68417848 457.35630443 -661.5 454.125 C-662.4368732 448.31638616 -661.45298033 444.69475249 -658.109375 439.8671875 C-655.90551935 437.48146027 -653.62521355 436.38074262 -650.67578125 435.09765625 C-643.2240594 431.76645564 -636.20287082 426.56958294 -632.5 419.125 C-632.72843331 416.4084209 -632.72843331 416.4084209 -633.5 414.125 C-640.24248435 414.27983785 -644.96007779 415.45608475 -650.6875 419.06640625 C-652.5 420.125 -652.5 420.125 -654.5 420.125 C-654.5 420.785 -654.5 421.445 -654.5 422.125 C-658.46855174 423.81776853 -662.45128638 425.47430158 -666.4375 427.125 C-667.55447266 427.60195313 -668.67144531 428.07890625 -669.82226562 428.5703125 C-679.14783075 432.39899026 -686.42831262 433.48833762 -696.0859375 430.2890625 C-702.93216333 426.98780797 -707.20538326 420.26782232 -711.6484375 414.34375 C-713.61577807 411.98626172 -715.71647548 410.10225144 -718.0625 408.125 C-722.90070566 404.00632236 -729.07001296 397.64813295 -729.703125 390.98828125 C-729.81557171 384.86930634 -729.65098095 379.41899933 -725.15527344 374.71923828 C-720.10907976 370.33024469 -714.60730673 367.05785441 -708.8125 363.75 C-692.75539343 354.41029891 -677.76969544 344.28919951 -664.19921875 331.55078125 C-661.47231667 329.10012106 -658.62058207 326.94684285 -655.6875 324.75 C-648.76370263 319.1832273 -644.94523817 311.85274022 -643.5 303.125 C-643.42116185 301.28712804 -643.39217707 299.44671176 -643.40234375 297.60717773 C-643.40564697 296.52512558 -643.4089502 295.44307343 -643.41235352 294.32823181 C-643.42480103 292.58601097 -643.42480103 292.58601097 -643.4375 290.80859375 C-643.44128662 289.60115005 -643.44507324 288.39370636 -643.44897461 287.14967346 C-643.46527353 281.9935385 -643.49326297 276.83748343 -643.52050781 271.68139648 C-643.53872663 267.91129939 -643.55074187 264.14121569 -643.5625 260.37109375 C-643.57494751 258.65012733 -643.57494751 258.65012733 -643.58764648 256.89439392 C-643.64363477 238.18005427 -640.93054717 226.75767915 -627.5 213.125 C-626.81164062 212.35285156 -626.12328125 211.58070313 -625.4140625 210.78515625 C-615.0018978 199.46337864 -601.19945365 194.5094576 -587.09423828 189.24462891 C-580.2730431 186.61355448 -574.14208282 183.97633214 -569.5 178.125 C-567.92962675 174.50898923 -567.92962675 174.50898923 -567.375 170.625 C-567.08527866 169.21568315 -566.78685632 167.80813146 -566.48046875 166.40234375 C-566.32755371 165.69319824 -566.17463867 164.98405273 -566.01708984 164.25341797 C-563.64726786 154.4988816 -559.42082727 145.45680276 -552.5 138.125 C-551.71625 137.279375 -550.9325 136.43375 -550.125 135.5625 C-546.28251294 133.45828089 -542.73865888 133.55415407 -538.5 134.125 C-534.51928704 135.44659103 -530.78248977 137.19573747 -527 139 C-516.19738218 144.06771953 -507.5117461 146.47896165 -495.5625 146.4375 C-494.63759766 146.45361328 -493.71269531 146.46972656 -492.75976562 146.48632812 C-483.36411785 146.49291232 -475.34340309 144.20165651 -467.375 139.25 C-466.7466626 138.86634277 -466.1183252 138.48268555 -465.47094727 138.08740234 C-458.30975069 133.57768107 -451.90008691 128.15973079 -445.43017578 122.72851562 C-442.45810817 120.25943644 -439.42065461 117.87726338 -436.375 115.5 C-435.80515381 115.05269531 -435.23530762 114.60539063 -434.64819336 114.14453125 C-431.78133275 111.89633256 -428.90272987 109.66508082 -426.0078125 107.453125 C-416.41423387 100.08350626 -407.44088876 92.12908971 -398.9296875 83.52734375 C-390.73764796 75.42749758 -381.30430197 68.6306229 -372.06640625 61.7890625 C-369.99526021 60.25505003 -367.97793276 58.70071935 -365.9765625 57.07421875 C-362.87125777 54.63013821 -359.6159008 52.47749806 -356.3125 50.3125 C-352.06872116 47.52373105 -347.87037074 44.6898411 -343.7265625 41.75390625 C-338.28965657 37.93414724 -332.70398908 34.38342769 -327.0625 30.875 C-326.01771484 30.2245874 -324.97292969 29.5741748 -323.89648438 28.90405273 C-314.54315296 23.10809363 -305.12089337 17.4657409 -295.5 12.125 C-294.55278076 11.59084473 -294.55278076 11.59084473 -293.58642578 11.04589844 C-212.92130993 -33.96149634 -114.57446977 -14.39792127 0 0 Z " fill="#FEFEFE" transform="translate(1370.5,592.875)"/>
<path d="M0 0 C1.7631209 1.75777 3.51252862 3.52937244 5.25 5.3125 C10.85719537 11.03865991 16.9616594 15.87111561 23.32958984 20.71875 C25.87475507 22.67096092 28.37448532 24.67859994 30.875 26.6875 C31.67679688 27.33074219 32.47859375 27.97398437 33.3046875 28.63671875 C33.86414063 29.08660156 34.42359375 29.53648437 35 30 C31.34394816 33.82785879 27.52150536 37.06725679 23.25 40.1875 C22.27752319 40.8997876 22.27752319 40.8997876 21.28540039 41.62646484 C15.15098008 46.03505361 8.71312541 49.81733687 2.171875 53.58203125 C-1.87431377 55.91282417 -5.86239086 58.32249894 -9.8125 60.8125 C-10.91207031 61.49957031 -12.01164063 62.18664062 -13.14453125 62.89453125 C-16.59035329 65.4352947 -19.25207728 67.9251176 -20.7265625 72.015625 C-21.71060445 79.156958 -21.65135206 84.2716197 -17.34765625 90.265625 C-16.68056641 91.12414062 -16.68056641 91.12414062 -16 92 C-15.401875 92.845625 -14.80375 93.69125 -14.1875 94.5625 C-12.30856242 96.65617331 -10.46114665 98.32879934 -8.3125 100.125 C-4.90657495 103.01718216 -2.15940942 106.1315757 0.625 109.625 C6.05454358 116.39104662 10.19794348 120.71292959 19 122 C26.2634419 122.74014499 31.64791501 120.97079798 38.25 118.0625 C39.98276058 117.32043759 41.71709187 116.58203002 43.453125 115.84765625 C44.58476074 115.3527771 44.58476074 115.3527771 45.73925781 114.84790039 C48.14179241 113.94682019 50.47540944 113.43810381 53 113 C53 112.34 53 111.68 53 111 C59.6311914 106.87756733 65.94046076 103.24293956 74 104 C76 106 76 106 76 108.125 C72.49098316 118.21342341 63.12992208 124.35766674 54 129 C53.01 129 52.02 129 51 129 C50.566875 129.86625 50.566875 129.86625 50.125 130.75 C49 133 49 133 47.875 134.75 C46.52819521 138.21321232 46.21012453 141.39870335 47 145 C49.07500439 148.32255304 51.46568128 151.23284064 55 153 C55 153.66 55 154.32 55 155 C68.60381504 162.2423188 81.92910766 162.56941197 96.51171875 158.32421875 C100.70166959 156.73363271 103.83748052 154.64247789 107.37109375 151.9296875 C117.76600986 144.29954105 129.4985427 139.80537041 142 137 C142.78149414 136.80946045 143.56298828 136.6189209 144.36816406 136.42260742 C156.18623348 133.96569299 168.4925348 134.90873024 180.49169922 135.11645508 C200.41598861 135.43518091 219.42490079 133.88975056 238.625 128.3125 C239.84864258 127.96509766 241.07228516 127.61769531 242.33300781 127.25976562 C256.71504514 123.07082271 270.18051801 117.41889645 283.65063477 110.93188477 C291.88360599 107.01769172 300.38991731 103.96990233 309 101 C309.88913086 100.68611328 310.77826172 100.37222656 311.69433594 100.04882812 C331.43700553 93.12182015 351.05521465 89.03342498 371.625 95.0625 C374.31173524 97.25431032 374.48447344 97.8313581 375 101.125 C375.82007842 110.45339204 371.85857501 117.53553969 366.875 125.0625 C361.65411435 133.20745438 357.10221501 141.40381598 352.91943359 150.11474609 C348.46756345 159.24308949 343.47556271 168.01006107 338.0703125 176.60546875 C336.15486192 179.74608488 334.36043546 182.92301712 332.59277344 186.14746094 C323.22845476 203.190046 310.33902287 215.13148397 294.79296875 226.6328125 C282.23936624 236.25099552 271.19779415 246.89515217 264.02636719 261.07519531 C261.98038228 264.91214702 259.61462407 268.56325682 257.3125 272.25 C254.39448944 276.9545978 251.5924687 281.59990213 249.25 286.625 C248.51675715 288.09183027 247.76491632 289.54943489 247 291 C246.62302979 291.71994141 246.24605957 292.43988281 245.85766602 293.18164062 C244.09869805 295.78931595 242.6739098 297.3052828 240 299 C234.17814594 299.81606134 228.52682649 299.3445899 222.6875 298.875 C219.58823188 298.66631232 216.48806888 298.47956887 213.38671875 298.3046875 C212.64431442 298.26189667 211.9019101 298.21910583 211.13700867 298.17501831 C199.20840795 297.5971425 188.04655538 301.26105283 178.7265625 308.8515625 C171.02502173 317.02393983 167.62510329 327.51946145 167.7890625 338.5703125 C168.21274578 343.45051622 170.12483949 346.14618486 173.5625 349.5 C191.77763568 363.45297339 213.24580043 366.41554185 235.58605957 363.68377686 C249.11420383 361.832861 262.56604428 359.43128457 276 357 C276.33 357.66 276.66 358.32 277 359 C276.05948635 361.29338006 275.05954193 363.47085051 273.9609375 365.6875 C273.30226131 367.05628278 272.64573992 368.42610425 271.99121094 369.796875 C271.65617554 370.49748047 271.32114014 371.19808594 270.97595215 371.91992188 C268.34286136 377.53191275 266.00715753 383.27823251 263.625 389 C263.3475293 389.66376648 263.07005859 390.32753296 262.78417969 391.01141357 C257.66278047 403.26655609 252.75900576 415.59951203 248 428 C247.54496094 429.175625 247.08992188 430.35125 246.62109375 431.5625 C245.40640341 434.70546114 244.20162844 437.85202131 243 441 C242.70770508 441.76489746 242.41541016 442.52979492 242.11425781 443.31787109 C241.09623604 445.98245444 240.0791964 448.64741068 239.0625 451.3125 C238.75046631 452.12992676 238.43843262 452.94735352 238.11694336 453.78955078 C233.07609901 467.01999859 228.13297471 480.28312661 223.32275391 493.59912109 C222.50263665 495.86770658 221.67910037 498.13503222 220.85546875 500.40234375 C217.79255949 508.86203532 214.83425985 517.34533587 212.06628418 525.90670776 C210.60005453 530.39348215 208.90452183 534.68057719 207 539 C202.86787624 549.25344087 200.23763915 558.9724961 199 570 C198.32837576 574.77060933 197.68353446 578.06258131 194.8125 582 C190.80304525 584.85116782 187.33904094 585.35085614 182.5 584.625 C181.675 584.41875 180.85 584.2125 180 584 C178.2984375 583.814375 178.2984375 583.814375 176.5625 583.625 C167.84485461 582.09558853 162.62325062 576.18188619 156.62304688 570.17895508 C155.01967941 568.58209949 153.39395521 567.01079178 151.765625 565.43945312 C143.58039923 557.38990757 137.23315092 548.90071165 135.5 537.1875 C135.26410156 535.90617187 135.02820313 534.62484375 134.78515625 533.3046875 C134.38132365 531.09211806 133.97861243 528.8795343 133.58544922 526.66503906 C129.99037769 507.54424855 121.0447188 491.21807832 112.14697266 474.14208984 C103.78421891 458.06220404 96.62692387 441.62849577 90.06640625 424.74072266 C88.62927489 421.04721611 87.16151978 417.36640156 85.6875 413.6875 C85.27886719 412.66011719 84.87023437 411.63273437 84.44921875 410.57421875 C83.60449671 408.49087464 82.7508501 406.41102651 81.875 404.34057617 C78.89153928 397.27952789 76.18424979 390.16203699 73.625 382.9375 C73.23199707 381.84751709 72.83899414 380.75753418 72.43408203 379.63452148 C70.69152891 374.79799686 68.9706086 369.96257534 67.390625 365.0703125 C62.96692805 351.70464309 55.95287523 340.10870956 48.78466797 328.04443359 C38.72713679 310.88746864 30.28170984 292.72458553 22.25 274.55078125 C21.59162627 273.07037015 20.93301544 271.59006447 20.27416992 270.10986328 C18.99177786 267.22856411 17.72942096 264.33959171 16.4777832 261.44482422 C13.32698617 254.28229555 9.92541011 248.06394518 4.78344727 242.08227539 C2.4224058 239.32562615 0.6576781 236.50229154 -1.1875 233.375 C-1.72697266 232.46669434 -1.72697266 232.46669434 -2.27734375 231.54003906 C-4.67559235 227.44502957 -6.92678281 223.28117273 -9.14453125 219.0859375 C-16.35405333 205.16145706 -16.35405333 205.16145706 -25.703125 192.66796875 C-28.65857066 189.23502762 -31.22157788 185.5869145 -33.8125 181.875 C-34.32135742 181.15143311 -34.83021484 180.42786621 -35.35449219 179.68237305 C-37.91256161 176.03322021 -40.43270507 172.36321572 -42.90625 168.65625 C-49.52295994 158.84822595 -56.90609457 150.69301159 -65.44238281 142.52001953 C-67.85122524 140.16932157 -70.02892918 137.65439389 -72.19921875 135.0859375 C-74.72771373 132.15705177 -77.36690153 129.3347502 -80 126.5 C-83.82832239 122.37163577 -87.60860064 118.21512092 -91.29296875 113.95703125 C-94.09055718 110.74972736 -96.95517244 107.60290562 -99.80859375 104.4453125 C-101.75263036 102.27603101 -103.6622635 100.08256404 -105.5625 97.875 C-115.22341054 86.86862018 -125.76861607 78.44556184 -138.76147461 71.74487305 C-144.29209082 68.89136022 -149.10549937 66.09931151 -153.3125 61.4375 C-156.54075826 58.50954483 -159.6135972 57.39411403 -163.6953125 55.9921875 C-166.13244706 54.94298042 -167.43512644 54.13763773 -169 52 C-169 50.68 -169 49.36 -169 48 C-169.60328125 48.01160156 -170.2065625 48.02320313 -170.828125 48.03515625 C-171.62734375 48.04417969 -172.4265625 48.05320312 -173.25 48.0625 C-174.43335938 48.07990234 -174.43335938 48.07990234 -175.640625 48.09765625 C-177.9108462 48.00369014 -179.80752315 47.54927315 -182 47 C-182.804375 47.165 -183.60875 47.33 -184.4375 47.5 C-187 48 -187 48 -189.25 47.3125 C-193.12260258 46.87243153 -195.53897888 48.48242387 -198.9140625 50.28515625 C-199.94660156 50.63900391 -199.94660156 50.63900391 -201 51 C-201.99 50.34 -202.98 49.68 -204 49 C-203.43899078 45.20893773 -201.84675862 43.4970605 -199.125 40.875 C-198.42632812 40.19179688 -197.72765625 39.50859375 -197.0078125 38.8046875 C-195 37 -195 37 -192 35 C-191.34257812 33.824375 -191.34257812 33.824375 -190.671875 32.625 C-188.60140112 29.37416251 -186.51720611 28.04001162 -183.25 26 C-182.35655884 25.44131226 -182.35655884 25.44131226 -181.44506836 24.87133789 C-168.56665417 16.93175633 -155.25599025 9.63967715 -141.86523438 2.60522461 C-138.52372924 0.84264658 -135.27462624 -1.01229812 -132.0625 -3 C-121.29311175 -9.50028328 -110.42505459 -14.43340074 -98.5 -18.4375 C-97.48534668 -18.77958496 -96.47069336 -19.12166992 -95.42529297 -19.47412109 C-63.01900751 -29.9907769 -25.32729305 -22.69484999 0 0 Z " fill="#1D467E" transform="translate(663,902)"/>
<path d="M0 0 C15.29898558 14.47133554 23.19784924 34.21189966 23.875 55.0625 C23.47231848 87.11594886 6.40286901 119.91136319 -15.375 142.625 C-16.48377512 143.9545035 -17.58809242 145.28773982 -18.6875 146.625 C-24.67357464 153.5223038 -32.26761976 158.94950956 -39.375 164.625 C-37.33496173 167.14715492 -35.29266545 169.66747252 -33.25 172.1875 C-32.39535156 173.24420898 -32.39535156 173.24420898 -31.5234375 174.32226562 C-30.95625 175.02158203 -30.3890625 175.72089844 -29.8046875 176.44140625 C-29.2384668 177.14023926 -28.67224609 177.83907227 -28.08886719 178.55908203 C-25.9483385 181.13930337 -23.71348812 183.62850536 -21.44580078 186.09741211 C-20.375 187.625 -20.375 187.625 -20.375 190.625 C-27.94231777 189.12596565 -35.09199877 186.83899985 -42.375 184.3125 C-43.4990625 183.93416016 -44.623125 183.55582031 -45.78125 183.16601562 C-50.94631011 181.38298378 -55.65443454 179.58321111 -60.3125 176.70703125 C-63.50581952 174.73937682 -63.50581952 174.73937682 -67.16796875 175.28125 C-68.22628906 175.7246875 -69.28460937 176.168125 -70.375 176.625 C-104.46035635 180.328672 -142.80382763 168.12231238 -169.67578125 146.859375 C-170.56652344 146.12203125 -171.45726562 145.3846875 -172.375 144.625 C-173.23480469 143.92890625 -174.09460938 143.2328125 -174.98046875 142.515625 C-189.31693246 130.33518761 -200.09189631 113.56252969 -202.375 94.625 C-204.45960726 68.07521027 -195.99555293 45.32301801 -179.03417969 25.02001953 C-158.58293211 1.18480561 -133.79480433 -13.1622426 -103.375 -20.375 C-102.65618652 -20.55289063 -101.93737305 -20.73078125 -101.19677734 -20.9140625 C-66.39064829 -29.22991414 -27.54354598 -23.50662932 0 0 Z " fill="#FEFEFE" transform="translate(606.375,611.375)"/>
<path d="M0 0 C2.8125 2.3125 2.8125 2.3125 5 5 C5.598125 5.433125 6.19625 5.86625 6.8125 6.3125 C8.87210688 9.23930978 8.52506591 12.60368761 8 16 C6.4375 18.8125 6.4375 18.8125 5 21 C5.33 21.99 5.66 22.98 6 24 C6.22508039 30.18971061 6.22508039 30.18971061 5.375 33.25 C5.189375 34.11625 5.189375 34.11625 5 35 C5.66 35.99 6.32 36.98 7 38 C7.19850603 41.70544587 7.17664871 44.47005387 6 48 C6.598125 48.185625 7.19625 48.37125 7.8125 48.5625 C11.0024739 50.65876856 11.99582031 53.45668023 13 57 C13.47694211 60.39821256 13.76545575 62.73841552 11.9453125 65.73828125 C10.17091242 67.93790739 8.5468522 69.7265739 6 71 C6.19142578 71.99966797 6.19142578 71.99966797 6.38671875 73.01953125 C6.88638645 77.65930276 6.82457647 80.78748988 4.1484375 84.72265625 C-1.84560305 90.87062231 -8.69583776 95.7927253 -15.58422852 100.88232422 C-22.58835084 106.18892562 -28.04695737 112.3792319 -33.53857422 119.19628906 C-35.35316657 121.43588283 -37.22358387 123.62363841 -39.09960938 125.81176758 C-45.59333863 133.39923991 -51.91615313 141.13270987 -58.24462891 148.85791016 C-59.38897903 150.25436746 -60.53443408 151.64992027 -61.68115234 153.04443359 C-68.9376729 161.87086409 -75.9836755 170.83032475 -82.89453125 179.9296875 C-85.66128461 183.56822757 -88.47611618 187.16563475 -91.3125 190.75 C-106.87331892 210.35789824 -106.87331892 210.35789824 -121 231 C-131.17881127 230.14802901 -141.34384199 229.20900366 -151.4921875 228.046875 C-152.60223648 227.91980919 -152.60223648 227.91980919 -153.73471069 227.79017639 C-155.25920494 227.6154144 -156.78369011 227.44057321 -158.3081665 227.26565552 C-171.6442024 225.73650311 -184.94622152 224.4326122 -198.34619141 223.59570312 C-203.29032304 223.28570735 -208.13111021 222.97547444 -213 222 C-210.3374913 217.05445229 -207.45400464 212.89453362 -203.75 208.6875 C-202.76190945 207.54392809 -201.77493696 206.39938921 -200.7890625 205.25390625 C-200.30985352 204.69848145 -199.83064453 204.14305664 -199.33691406 203.57080078 C-197.54440836 201.46470478 -195.83210312 199.30064845 -194.125 197.125 C-189.71395305 191.56167956 -185.04388806 186.23269202 -180.37890625 180.8828125 C-177.64008723 177.74171222 -174.92271746 174.5831434 -172.21606445 171.41430664 C-170.25684465 169.12088356 -168.29136239 166.8328777 -166.32519531 164.54541016 C-165.09512359 163.11093079 -163.8715047 161.67092497 -162.6484375 160.23046875 C-161.96007813 159.43253906 -161.27171875 158.63460937 -160.5625 157.8125 C-159.98628906 157.13832031 -159.41007812 156.46414063 -158.81640625 155.76953125 C-157 154 -157 154 -154.5703125 152.63671875 C-151.37787238 150.60384275 -149.48331474 148.02465971 -147.3125 145 C-143.24832153 139.52453115 -138.94549315 134.48661411 -134.3046875 129.484375 C-132.30871488 127.33278418 -130.36107022 125.15359472 -128.4375 122.9375 C-125.06222904 119.05395294 -121.61663637 115.23634279 -118.16796875 111.41796875 C-116.35952443 109.4009831 -114.5801266 107.36508404 -112.8125 105.3125 C-102.38671372 93.37847666 -91.25050919 82.10704031 -80.02734375 70.9296875 C-78.64663384 69.55085076 -77.26615053 68.17178708 -75.88587952 66.79251099 C-72.30139419 63.21178975 -68.71391674 59.63408188 -65.12573242 56.05706787 C-61.46543689 52.4070839 -57.80803928 48.75419856 -54.15039062 45.1015625 C-48.25706446 39.21695888 -42.36204211 33.33406129 -36.46464539 27.45353699 C-32.00519663 23.00656008 -27.5478053 18.55776619 -23.1171875 14.08203125 C-21.70317592 12.65880358 -20.28911231 11.23562759 -18.875 9.8125 C-17.80185547 8.72678711 -17.80185547 8.72678711 -16.70703125 7.61914062 C-16.01738281 6.92626953 -15.32773438 6.23339844 -14.6171875 5.51953125 C-13.99440918 4.89151611 -13.37163086 4.26350098 -12.72998047 3.61645508 C-8.80412299 -0.05177839 -5.24098215 -1.02563252 0 0 Z " fill="#1C467E" transform="translate(1449,357)"/>
<path d="M0 0 C-1.3206884 4.23164824 -2.93026244 8.10892225 -4.9140625 12.07104492 C-5.50227783 13.25055222 -6.09049316 14.43005951 -6.6965332 15.64530945 C-7.33921631 16.92376585 -7.98204247 18.20215034 -8.625 19.48046875 C-9.29350589 20.81628509 -9.96171317 22.15225091 -10.62963867 23.48835754 C-12.03268284 26.29288354 -13.43839472 29.09605007 -14.84619141 31.89819336 C-16.62072043 35.43048309 -18.39012424 38.96530697 -20.15770912 42.50107574 C-32.29800721 66.78038241 -32.29800721 66.78038241 -38.5234375 78.44921875 C-42.91394685 86.68949148 -46.82830441 95.09779167 -50.625 103.625 C-51.59088661 105.77570342 -52.55897295 107.92540723 -53.52726746 110.07502747 C-54.15536505 111.46958329 -54.7828321 112.86442329 -55.40962219 114.25956726 C-58.83919866 121.88720895 -62.39418184 129.4542783 -66 137 C-73.29799747 134.32238865 -77.08912761 131.49904966 -80.53491211 124.50195312 C-81.19825562 123.04692383 -81.19825562 123.04692383 -81.875 121.5625 C-82.89231587 119.47938538 -83.91190519 117.39737972 -84.93359375 115.31640625 C-85.44132324 114.2608252 -85.94905273 113.20524414 -86.47216797 112.11767578 C-88.81724506 107.33233949 -91.36559413 102.66631104 -93.9375 98 C-94.43193604 97.09886475 -94.92637207 96.19772949 -95.43579102 95.26928711 C-96.95255179 92.51026909 -98.47559334 89.75479982 -100 87 C-100.51143555 86.07219727 -101.02287109 85.14439453 -101.54980469 84.18847656 C-113.23096122 63.04594715 -125.75681339 42.52138799 -140 23 C-136.45696083 19.83525407 -132.47697372 18.70238473 -128 17.4375 C-127.30777344 17.22931641 -126.61554687 17.02113281 -125.90234375 16.80664062 C-123.61312147 16.14397102 -121.31675131 15.55880619 -119 15 C-118.20255371 14.80220947 -117.40510742 14.60441895 -116.58349609 14.40063477 C-104.78868517 11.95437511 -92.48278703 12.90915745 -80.50830078 13.11645508 C-60.18938689 13.44149365 -41.02597336 11.72655371 -21.5 5.9375 C-20.26636719 5.58623047 -19.03273438 5.23496094 -17.76171875 4.87304688 C-13.39129384 3.62063367 -9.04241791 2.35655502 -4.74023438 0.88500977 C-2 0 -2 0 0 0 Z " fill="#092B5E" transform="translate(924,1024)"/>
<path d="M0 0 C3.37503669 1.1858237 5.64722731 2.27573689 8 5 C4.62496331 3.8141763 2.35277269 2.72426311 0 0 Z " fill="#012155" transform="translate(1269,1678)"/>
<path d="M0 0 C0.99 0.33 1.98 0.66 3 1 C2.01 1 1.02 1 0 1 C0 0.67 0 0.34 0 0 Z " fill="#001C29" transform="translate(1266,1676)"/>
<path d="M0 0 C2 1 2 1 2 1 Z " fill="#00007F" transform="translate(1264,1675)"/>
<path d="" fill="#000000" transform="translate(0,0)"/>
<path d="" fill="#000000" transform="translate(0,0)"/>
<path d="" fill="#000000" transform="translate(0,0)"/>
</svg>
